<?xml version="1.0" encoding="UTF-8" standalone="no"?>
<!-- Uploaded to: SVG Repo, www.svgrepo.com, Generator: SVG Repo Mixer Tools -->

<svg
   fill="#000000"
   width="800px"
   height="800px"
   viewBox="0 0 512 512"
   id="_x30_1"
   version="1.1"
   xml:space="preserve"
   sodipodi:docname="delete.svg"
   inkscape:version="1.3.2 (091e20e, 2023-11-25)"
   xmlns:inkscape="http://www.inkscape.org/namespaces/inkscape"
   xmlns:sodipodi="http://sodipodi.sourceforge.net/DTD/sodipodi-0.dtd"
   xmlns="http://www.w3.org/2000/svg"
   xmlns:svg="http://www.w3.org/2000/svg"><defs
   id="defs3" /><sodipodi:namedview
   id="namedview3"
   pagecolor="#ffffff"
   bordercolor="#000000"
   borderopacity="0.25"
   inkscape:showpageshadow="2"
   inkscape:pageopacity="0.0"
   inkscape:pagecheckerboard="0"
   inkscape:deskcolor="#d1d1d1"
   showgrid="false"
   inkscape:zoom="0.78625"
   inkscape:cx="255.00795"
   inkscape:cy="373.92687"
   inkscape:window-width="1512"
   inkscape:window-height="841"
   inkscape:window-x="0"
   inkscape:window-y="38"
   inkscape:window-maximized="0"
   inkscape:current-layer="_x30_1" />

<g
   id="g3">

<path
   d="M298.656,187.5c-10.096,0-18.281,8.185-18.281,18.281v129.188c0,10.096,8.185,18.281,18.281,18.281   s18.281-8.185,18.281-18.281V205.781C316.938,195.685,308.753,187.5,298.656,187.5z"
   id="path1" />

<path
   d="M256,0C114.615,0,0,114.615,0,256s114.615,256,256,256s256-114.615,256-256S397.385,0,256,0z M365.688,163.125v202.312   c0,20.193-16.37,36.562-36.562,36.562h-146.25c-20.193,0-36.562-16.37-36.562-36.562V163.125   c-13.462,0-24.375-10.913-24.375-24.375s10.913-24.375,24.375-24.375h49.796c3.232,0,6.332-1.284,8.618-3.57l17.236-17.236   c2.286-2.285,5.385-3.57,8.618-3.57h50.841c3.232,0,6.332,1.284,8.618,3.57l17.236,17.236c2.286,2.286,5.385,3.57,8.618,3.57   h49.795c13.462,0,24.375,10.913,24.375,24.375S379.149,163.125,365.688,163.125z"
   id="path2" />

<path
   d="M213.344,187.5c-10.096,0-18.281,8.185-18.281,18.281v129.188c0,10.096,8.185,18.281,18.281,18.281   s18.281-8.185,18.281-18.281V205.781C231.625,195.685,223.44,187.5,213.344,187.5z"
   id="path3" />

</g>

<path
   style="fill:#e6e6e6;stroke-width:1.27186"
   d="m 268.9818,624.75176 c -9.89721,-3.44179 -17.50493,-8.44365 -24.5244,-16.12407 -7.55633,-8.26783 -12.19872,-17.44583 -14.1321,-27.93918 -0.95845,-5.20195 -1.39048,-56.98975 -1.39048,-166.67717 V 254.88096 l -7.42409,-1.53342 c -10.96219,-2.26421 -19.87196,-9.01036 -25.50867,-19.31424 -3.98832,-7.29062 -4.50979,-9.29843 -4.45943,-17.17011 0.0949,-14.82654 8.53193,-27.96334 21.94015,-34.16155 5.617,-2.59657 8.30127,-2.769 53.60784,-3.44377 26.23211,-0.39068 47.93507,-0.81994 48.22879,-0.95389 0.29372,-0.13396 8.30643,-7.93543 17.80603,-17.33659 9.49962,-9.40116 18.8832,-17.70005 20.85243,-18.44197 4.86899,-1.83443 87.17527,-1.83443 92.04426,0 1.96923,0.74192 11.35281,9.04081 20.85243,18.44197 9.4996,9.40116 17.51231,17.20263 17.80604,17.33659 0.29371,0.13395 21.99667,0.56321 48.22878,0.95389 45.30657,0.67477 47.99083,0.8472 53.60785,3.44377 16.5471,7.64922 25.65272,26.53514 20.81572,43.17383 -4.2378,14.57749 -14.74398,24.507 -29.12105,27.52262 l -7.14672,1.49904 v 159.1223 c 0,109.68157 -0.43204,161.46715 -1.39048,166.66908 -3.23046,17.53321 -14.93679,32.77922 -31.42715,40.92986 l -9.65619,4.77273 -126.61682,0.28895 c -117.56324,0.2683 -127.07273,0.13042 -132.99274,-1.92829 z m 80.93975,-77.24247 c 3.40154,-2.39069 6.78962,-6.39107 9.0058,-10.63332 l 3.55278,-6.80078 -0.007,-106.37305 c -0.005,-71.06775 -0.45496,-107.98592 -1.35649,-111.23254 -1.72393,-6.20825 -9.26433,-14.58937 -15.80652,-17.56892 -5.78165,-2.63316 -14.16107,-3.00789 -21.62163,-0.96691 -7.16066,1.95895 -16.3089,11.63549 -18.23615,19.28926 -1.06256,4.21981 -1.47768,35.14255 -1.47768,110.07375 0,111.83661 -0.10624,109.87549 6.40772,118.2804 1.45562,1.87818 5.33114,5.01496 8.61228,6.97062 5.368,3.19951 6.94294,3.51759 15.71983,3.17488 8.45618,-0.33017 10.47975,-0.89083 15.20716,-4.21339 z m 129.36971,2.03631 c 2.63234,-1.34293 6.59015,-4.28693 8.79511,-6.5422 8.16824,-8.35469 7.93907,-4.89717 7.93907,-119.77328 0,-74.88056 -0.41516,-105.78744 -1.47769,-110.00709 -1.92723,-7.65377 -11.07548,-17.33031 -18.23614,-19.28926 -7.46056,-2.04098 -15.83998,-1.66625 -21.62163,0.96691 -6.54219,2.97955 -14.08259,11.36067 -15.80652,17.56892 -0.90148,3.24644 -1.35176,40.13396 -1.35649,111.12806 l -0.007,106.26855 3.24182,6.50549 c 3.16551,6.35234 8.9489,11.92502 14.82175,14.28173 5.35182,2.14763 18.53402,1.53164 23.70782,-1.10783 z"
   id="path4"
   transform="scale(0.64)" /><g
   id="g4"
   transform="matrix(0.64,0,0,0.64,251.07328,250.9136)"><path
     d="M 13.451,5.609 12.872,4.67 11.804,5.482 11.728,5.576 c -0.335,0.415 -0.927,1.341 -1.124,2.876 l -0.021,0.165 0.033,0.163 0.071,0.345 c 0,1.654 -1.346,3 -3,3 -0.795,0 -1.545,-0.311 -2.107,-0.868 C 5.017,10.69 4.707,9.94 4.707,9.146 4.707,7.715 5.714,6.514 7.058,6.217 v 2.926 c 0,0 2.528,-2.087 2.984,-2.461 h 0.012 L 13.115,4.1 8.196,0 H 7.059 V 2.404 C 3.63,2.722 0.938,5.615 0.938,9.125 c 0,1.809 0.707,3.508 1.986,4.782 1.277,1.282 2.976,1.988 4.784,1.988 3.722,0 6.75,-3.028 6.75,-6.75 0,-1.245 -0.349,-2.468 -1.007,-3.536 z"
     fill="#2d2d30"
     id="path1-9" /><path
     d="m 12.6,6.134 -0.094,0.071 c -0.269,0.333 -0.746,1.096 -0.91,2.375 0.057,0.277 0.092,0.495 0.092,0.545 0,2.206 -1.794,4 -4,4 -1.098,0 -2.093,-0.445 -2.817,-1.164 -0.718,-0.724 -1.163,-1.718 -1.163,-2.815 0,-2.206 1.794,-4 4,-4 l 0.351,0.025 v 1.85 c 0,0 1.626,-1.342 1.631,-1.339 L 11.559,4.105 8.059,1.188 V 3.406 L 7.688,3.376 c -3.176,0 -5.75,2.574 -5.75,5.75 0,1.593 0.648,3.034 1.695,4.076 1.042,1.046 2.482,1.694 4.076,1.694 3.176,0 5.75,-2.574 5.75,-5.75 C 13.458,8.04 13.141,7.011 12.6,6.134 Z"
     fill="#c5c5c5"
     id="path2-3" /></g><path
   style="fill:#666666;stroke-width:1.27186"
   d="M 386.64547,799.07706 C 332.13543,797.6299 273.54018,782.8436 223.4872,757.90465 181.38862,736.92899 147.98665,712.62286 115.01353,678.96992 50.805115,613.4377 12.604426,532.09025 2.5811078,439.5478 c -1.75875346,-16.23808 -1.75875346,-62.85752 0,-79.0956 C 11.037358,282.37803 39.903776,211.5209 87.766486,151.35135 101.19667,134.46789 127.89082,107.16944 144.15621,93.685094 205.46223,42.861082 276.71456,12.353863 355.50712,3.1936128 376.39303,0.76546149 419.27519,0.41503746 438.86775,2.5124072 534.93645,12.796496 618.24663,52.914249 684.98647,121.03009 c 64.23551,65.55986 102.40475,146.83738 112.43113,239.41056 1.74868,16.14546 1.75498,61.08061 0.011,78.35108 -7.71262,76.37682 -37.46313,149.70665 -85.1407,209.85692 -13.59586,17.1526 -46.48664,50.04338 -63.63924,63.63924 -44.15255,34.99711 -98.53186,61.85584 -151.98728,75.06875 -35.51586,8.77866 -72.48255,12.71687 -110.0159,11.72042 z M 531.52183,625.88927 c 20.23678,-6.29839 35.53896,-23.53414 39.51701,-44.51034 0.83968,-4.42763 1.2982,-63.12056 1.2982,-166.17841 V 255.86747 l 5.40541,-0.90162 c 7.47968,-1.24761 15.97418,-5.82319 21.55885,-11.61272 18.03254,-18.69401 12.15094,-50.08346 -11.57493,-61.77409 -5.67473,-2.79615 -7.28235,-2.90403 -53.54513,-3.59303 -26.23211,-0.39068 -47.93346,-0.81993 -48.22522,-0.9539 -0.29175,-0.13395 -8.0183,-7.65511 -17.17011,-16.71365 -9.72375,-9.62467 -18.60499,-17.28967 -21.36827,-18.44197 -6.9862,-2.91331 -87.80164,-2.92589 -94.83528,-0.0148 -2.77071,1.14676 -11.31139,8.49328 -20.62688,17.74279 -8.74403,8.68213 -17.50943,16.38648 -19.47866,17.1208 -2.23967,0.83516 -19.65615,1.33511 -46.51002,1.33511 -50.22781,0 -52.05341,0.29555 -62.86552,10.17721 -9.08084,8.29937 -12.78181,16.57332 -12.7994,28.61453 -0.0277,18.94112 13.46065,35.02874 31.95567,38.1137 l 5.40541,0.90162 V 415.2005 c 0,103.05785 0.45852,161.75078 1.2982,166.17841 3.93588,20.75384 19.17782,38.08202 39.09855,44.45018 6.8662,2.19495 14.64709,2.33703 131.50901,2.40138 118.44201,0.0652 124.57059,-0.0435 131.95311,-2.34122 z"
   id="path5"
   transform="scale(0.64)" /><path
   style="fill:#666666;stroke-width:1.27186"
   d="m 320.39082,547.7561 c -6.47817,-3.42009 -12.26164,-10.94559 -13.92556,-18.12011 -1.69955,-7.3281 -1.55266,-209.78171 0.15667,-215.93767 1.82632,-6.57731 10.23562,-15.44972 17.14385,-18.088 12.6891,-4.84601 27.43214,0.93946 33.88863,13.29859 l 3.55386,6.80286 v 105.58956 c 0,75.43721 -0.41456,106.97324 -1.45174,110.43504 -4.7457,15.83971 -24.4885,23.87397 -39.36571,16.01973 z"
   id="path6"
   transform="scale(0.64)" /><path
   style="fill:#666666;stroke-width:1.27186"
   d="m 454.34338,548.09314 c -6.56309,-3.33263 -12.13404,-9.79528 -14.09991,-16.35677 -1.03718,-3.4618 -1.45174,-34.99783 -1.45174,-110.43504 V 315.71177 l 3.55386,-6.80286 c 6.45649,-12.35913 21.19953,-18.1446 33.88863,-13.29859 7.03541,2.68685 15.37814,11.59685 17.20257,18.37227 0.96297,3.57621 1.2791,37.53999 1.03396,111.08507 l -0.3531,105.93393 -3.56792,6.06981 c -5.1792,8.81097 -11.92926,12.84416 -22.36466,13.36303 -6.68087,0.33217 -9.5237,-0.14868 -13.84169,-2.34129 z"
   id="path7"
   transform="scale(0.64)" /><g
   id="g7"
   transform="matrix(0.64,0,0,0.64,218.10667,217.133)"><path
     d="M 13.451,5.609 12.872,4.67 11.804,5.482 11.728,5.576 c -0.335,0.415 -0.927,1.341 -1.124,2.876 l -0.021,0.165 0.033,0.163 0.071,0.345 c 0,1.654 -1.346,3 -3,3 -0.795,0 -1.545,-0.311 -2.107,-0.868 C 5.017,10.69 4.707,9.94 4.707,9.146 4.707,7.715 5.714,6.514 7.058,6.217 v 2.926 c 0,0 2.528,-2.087 2.984,-2.461 h 0.012 L 13.115,4.1 8.196,0 H 7.059 V 2.404 C 3.63,2.722 0.938,5.615 0.938,9.125 c 0,1.809 0.707,3.508 1.986,4.782 1.277,1.282 2.976,1.988 4.784,1.988 3.722,0 6.75,-3.028 6.75,-6.75 0,-1.245 -0.349,-2.468 -1.007,-3.536 z"
     fill="#2d2d30"
     id="path1-8" /><path
     d="m 12.6,6.134 -0.094,0.071 c -0.269,0.333 -0.746,1.096 -0.91,2.375 0.057,0.277 0.092,0.495 0.092,0.545 0,2.206 -1.794,4 -4,4 -1.098,0 -2.093,-0.445 -2.817,-1.164 -0.718,-0.724 -1.163,-1.718 -1.163,-2.815 0,-2.206 1.794,-4 4,-4 l 0.351,0.025 v 1.85 c 0,0 1.626,-1.342 1.631,-1.339 L 11.559,4.105 8.059,1.188 V 3.406 L 7.688,3.376 c -3.176,0 -5.75,2.574 -5.75,5.75 0,1.593 0.648,3.034 1.695,4.076 1.042,1.046 2.482,1.694 4.076,1.694 3.176,0 5.75,-2.574 5.75,-5.75 C 13.458,8.04 13.141,7.011 12.6,6.134 Z"
     fill="#c5c5c5"
     id="path2-0" /></g><path
   style="fill:#2d2d30;stroke-width:1.27186;fill-opacity:1"
   d="M 365.02385,797.24926 C 275.55159,788.48874 190.97057,750.41184 128.45787,690.75141 91.186246,655.18039 64.685213,619.85849 43.70057,577.78266 23.658255,537.59629 11.805554,499.40287 5.0708728,453.30472 1.6259505,429.7246 1.3077714,373.22391 4.4913589,350.39746 13.938696,282.65965 37.432295,222.60691 75.314345,169.36453 88.277562,151.14502 97.068062,140.92549 118.02891,119.70609 181.44954,55.503182 257.27214,17.872062 350.39746,4.3804787 c 10.95773,-1.5875092 80.76741,-3.61127565 80.76473,-2.3413512 -8.9e-4,0.4219971 4.36369,1.1362705 9.69905,1.5872744 13.51119,1.1421127 36.46311,5.1929561 54.52827,9.6238281 112.78011,27.66177 209.25578,105.14761 261.41746,209.96122 19.26152,38.70407 31.6559,78.40798 37.51999,120.19078 1.17811,8.39427 2.38947,16.0905 2.69191,17.10274 0.98619,3.30061 1.10056,77.65087 0.11944,77.65086 -0.52464,-10e-6 -0.95389,1.93142 -0.95389,4.29208 0,7.05652 -4.96827,34.59434 -9.55153,52.9416 -13.07727,52.34968 -36.25611,101.05431 -68.92553,144.82996 -12.0025,16.08284 -54.18068,59.42132 -69.72456,71.64262 -43.90267,34.51829 -98.68105,61.55256 -151.35844,74.69856 -17.19118,4.29017 -40.54385,8.25363 -60.19314,10.21609 -12.00292,1.19878 -60.69898,1.52102 -71.40737,0.47252 z M 520.19078,627.81438 c 15.5708,-1.28471 24.42171,-5.31253 35.0675,-15.95833 7.96034,-7.96034 13.40982,-17.51464 15.7299,-27.5785 0.83061,-3.60289 1.2977,-62.67288 1.31777,-166.64793 l 0.0311,-161.06672 4.76948,-0.87798 c 6.48861,-1.19445 15.58028,-5.30245 15.58028,-7.03982 0,-0.78013 0.50606,-1.10567 1.1246,-0.7234 1.5261,0.94319 11.90293,-10.46285 10.93846,-12.02339 -0.42154,-0.68207 -0.12655,-1.24012 0.65555,-1.24012 0.78209,0 1.06826,-0.57234 0.63593,-1.27186 -0.43234,-0.69953 -0.202,-1.27186 0.51184,-1.27186 2.19559,0 4.25775,-10.41862 3.57253,-18.04945 -1.2621,-14.05546 -10.05349,-27.08921 -22.26037,-33.00233 -5.10314,-2.47199 -8.55655,-2.70621 -53.19792,-3.60796 l -47.7405,-0.96435 -5.94359,-5.56048 c -3.26898,-3.05827 -10.3792,-9.8458 -15.8005,-15.0834 -5.4213,-5.2376 -9.85692,-9.15111 -9.85692,-8.69669 0,0.45443 -1.57481,-0.74859 -3.49957,-2.67336 -4.40424,-4.40422 -6.05282,-4.54934 -51.82634,-4.562 -37.36953,-0.0103 -45.67144,0.34539 -49.21117,2.10861 -1.18379,0.58967 -9.19651,7.70078 -17.80604,15.80247 -8.60954,8.10169 -17.05867,15.68271 -18.77586,16.84669 -2.72334,1.846 -9.05934,2.20019 -49.60254,2.77283 -45.09705,0.63696 -46.65649,0.74265 -52.3976,3.55099 -6.96386,3.40647 -16.90544,13.58599 -19.82817,20.30273 -3.25493,7.48017 -2.88684,23.5353 0.72394,31.57731 5.16209,11.49708 16.81719,20.42058 29.79092,22.80884 l 4.76948,0.87798 0.0311,161.06672 c 0.0201,103.97505 0.48716,163.04504 1.31777,166.64793 3.62083,15.70609 16.52148,31.91963 31.00862,38.97165 6.21881,3.02718 9.59546,3.76594 19.0779,4.17396 6.33693,0.27266 11.76017,0.72434 12.05164,1.0037 1.00263,0.96103 216.96935,0.38352 229.0408,-0.61248 z"
   id="path8"
   transform="scale(0.64)" /><path
   style="fill:#2d2d30;fill-opacity:1;stroke-width:1.27186"
   d="m 322.36392,547.68883 c -5.6932,-2.58606 -11.50025,-8.77965 -14.14161,-15.08294 -1.4068,-3.35719 -1.72615,-23.74459 -1.72647,-110.22104 -2.7e-4,-72.17082 0.43421,-107.25655 1.35861,-109.71239 1.92727,-5.12018 9.85317,-13.0375 15.83394,-15.81681 13.09666,-6.08612 27.55221,0.65211 35.63452,16.61048 2.09591,4.13833 2.17408,10.81655 1.29528,110.65184 -0.70593,80.19585 -1.32429,107.18327 -2.52188,110.06327 -0.87264,2.09857 -3.92296,5.92375 -6.77847,8.50041 -8.27861,7.47016 -19.32581,9.38062 -28.95392,5.00718 z m 32.31433,-196.09226 c 1.56021,-2.79362 1.56581,-3.76381 0.0397,-6.87791 -3.09023,-6.3057 -5.54945,-6.85552 -9.97061,-2.22921 -4.43066,4.63627 -4.70921,6.17074 -1.85884,10.2402 2.80249,4.00112 9.26949,3.37959 11.78977,-1.13308 z"
   id="path9"
   transform="scale(0.64)" /><path
   style="fill:#2d2d30;fill-opacity:1;stroke-width:1.27186"
   d="m 455.95094,547.7075 c -5.3325,-2.4225 -12.75718,-9.9104 -14.5796,-14.70372 -0.58606,-1.54147 -1.48768,-50.56978 -2.00359,-108.95181 -1.03586,-117.21938 -1.54543,-108.2007 6.73848,-119.26038 3.77803,-5.04396 14.38317,-10.33751 20.66643,-10.31562 9.01165,0.0314 22.05135,9.37175 25.36147,18.16645 0.90997,2.41771 1.34759,38.4621 1.34759,110.99506 v 107.41465 l -3.06145,4.84966 c -7.99932,12.67174 -22.00432,17.46844 -34.46933,11.80571 z"
   id="path10"
   transform="scale(0.64)" /></svg>
