<?xml version="1.0" encoding="UTF-8" standalone="no"?>
<!-- Uploaded to: SVG Repo, www.svgrepo.com, Generator: SVG Repo Mixer Tools -->

<svg
   width="800px"
   height="800px"
   viewBox="0 0 24 24"
   fill="none"
   version="1.1"
   id="svg1"
   sodipodi:docname="upload.svg"
   inkscape:version="1.3.2 (091e20e, 2023-11-25)"
   xmlns:inkscape="http://www.inkscape.org/namespaces/inkscape"
   xmlns:sodipodi="http://sodipodi.sourceforge.net/DTD/sodipodi-0.dtd"
   xmlns="http://www.w3.org/2000/svg"
   xmlns:svg="http://www.w3.org/2000/svg">
  <defs
     id="defs1" />
  <sodipodi:namedview
     id="namedview1"
     pagecolor="#ffffff"
     bordercolor="#000000"
     borderopacity="0.25"
     inkscape:showpageshadow="2"
     inkscape:pageopacity="0.0"
     inkscape:pagecheckerboard="0"
     inkscape:deskcolor="#d1d1d1"
     inkscape:zoom="0.295"
     inkscape:cx="398.30508"
     inkscape:cy="400"
     inkscape:window-width="1512"
     inkscape:window-height="841"
     inkscape:window-x="0"
     inkscape:window-y="38"
     inkscape:window-maximized="1"
     inkscape:current-layer="svg1" />
  <path
     d="M16 12L12 8M12 8L8 12M12 8V16M22 12C22 17.5228 17.5228 22 12 22C6.47715 22 2 17.5228 2 12C2 6.47715 6.47715 2 12 2C17.5228 2 22 6.47715 22 12Z"
     stroke="#000000"
     stroke-width="2"
     stroke-linecap="round"
     stroke-linejoin="round"
     id="path1" />
  <path
     style="fill:#c5c5c5;stroke-width:3.38983;fill-opacity:1"
     d="m 379.40026,554.49804 -9.90873,-9.90873 v -98.56584 c 0,-54.21122 -1.17009,-98.56584 -2.60019,-98.56584 -1.4301,0 -19.35383,16.88661 -39.83051,37.52581 -20.47667,20.63919 -41.53658,39.80374 -46.79978,42.58788 -19.63353,10.38578 -44.32885,-5.15406 -44.32885,-27.89449 0,-11.13381 5.5173,-17.50406 76.25422,-88.04291 69.54837,-69.35362 77.27076,-76.0407 87.81358,-76.0407 10.54282,0 18.26521,6.68708 87.81358,76.0407 70.73692,70.53885 76.25422,76.9091 76.25422,88.04291 0,22.74043 -24.69532,38.28027 -44.32885,27.89449 -5.2632,-2.78414 -26.32311,-21.94869 -46.79978,-42.58788 -20.47668,-20.6392 -38.40041,-37.52581 -39.83051,-37.52581 -1.4301,0 -2.60019,44.35462 -2.60019,98.56584 v 98.56584 l -9.90873,9.90873 c -13.32207,13.32207 -27.87741,13.32207 -41.19948,0 z"
     id="path2"
     transform="scale(0.03)" />
  <path
     style="fill:#c5c5c5;fill-opacity:1;stroke-width:3.38983"
     d="m 379.9211,552.24104 -10.42957,-8.77591 v -98.00375 c 0,-68.44403 -1.11396,-98.00375 -3.69328,-98.00375 -2.0313,0 -21.72422,17.47877 -43.76204,38.84173 -23.06199,22.35576 -44.05548,39.84232 -49.46166,41.19919 -11.60988,2.91389 -24.71031,-3.8786 -31.78285,-16.47921 -4.68257,-8.34258 -4.57559,-10.1966 1.2081,-20.93626 3.4901,-6.48072 38.01365,-43.12943 76.719,-81.44157 62.1467,-61.51537 71.64452,-69.65846 81.24714,-69.65846 9.5687,0 18.82113,7.83188 77.0901,65.25424 68.69846,67.70031 85.65582,87.1464 85.65582,98.22699 0,10.45149 -18.22465,26.34928 -30.20586,26.34928 -8.67082,0 -17.36234,-6.72553 -52.56879,-40.67797 -23.19921,-22.37288 -43.81127,-40.67796 -45.80456,-40.67796 -2.48878,0 -3.62418,30.70311 -3.62418,98.00375 v 98.00375 l -10.42957,8.77591 c -5.87486,4.94337 -14.64355,8.77591 -20.0789,8.77591 -5.43535,0 -14.20404,-3.83254 -20.0789,-8.77591 z"
     id="path3"
     transform="scale(0.03)" />
  <path
     style="fill:#2d2d30;fill-opacity:1;stroke-width:3.38983"
     d="M 336.72589,759.38739 C 200.47599,734.66532 87.791908,632.69539 49.518027,499.48766 -16.821183,268.60182 159.22171,35.59322 400,35.59322 c 240.69353,0 416.82247,233.01577 350.52647,463.74088 -38.618,134.39939 -151.55966,236.00848 -289.1061,260.09719 -34.26769,6.00132 -91.48857,5.98118 -124.69448,-0.0439 z m 126.97635,-64.70047 c 50.9541,-10.36133 101.12335,-36.48539 141.57223,-73.71936 56.25038,-51.77953 90.40007,-124.35105 95.32797,-202.58149 5.56793,-88.39112 -25.16627,-168.56463 -88.91532,-231.94539 -43.22075,-42.97107 -92.08898,-69.76139 -147.98488,-81.1276 -37.72119,-7.670453 -98.99841,-6.962053 -134.52766,1.55523 -108.14844,25.92596 -191.80332,108.41091 -221.65529,218.55542 -10.485205,38.68717 -10.485205,110.46535 0,149.15254 30.50069,112.53807 117.3753,196.39658 228.07393,220.15566 30.39263,6.52312 95.922,6.5001 128.10902,-0.045 z"
     id="path4"
     transform="scale(0.03)" />
  <path
     style="fill:#2d2d30;fill-opacity:1;stroke-width:3.38983"
     d="M 336.38389,691.27553 C 179.84855,656.98234 75.931783,498.13624 108.09324,342.31275 132.35006,224.78756 223.14384,132.97649 339.48008,108.33338 c 31.94102,-6.76596 89.09882,-6.76596 121.03985,0 159.03838,33.68857 263.87088,191.96741 231.38682,349.35387 -24.1335,116.92773 -115.59004,209.58411 -230.78922,233.81702 -29.93644,6.29732 -95.49342,6.17712 -124.73364,-0.22874 z m 87.60568,-133.38767 9.90874,-9.90871 v -99.36244 -99.36243 l 42.42386,42.32201 c 41.22437,41.1254 42.83902,42.32202 57.10614,42.32202 16.88667,0 24.9901,-5.49528 31.6705,-21.47714 8.3855,-20.06096 2.96838,-27.62873 -76.31708,-106.61582 -97.78417,-97.41619 -79.77929,-97.41619 -177.56347,0 -79.28546,78.98709 -84.70258,86.55486 -76.31709,106.61582 6.68042,15.98186 14.78385,21.47714 31.67054,21.47714 14.26712,0 15.88173,-1.19662 57.10611,-42.32202 l 42.42387,-42.32201 v 99.36243 99.36244 l 9.90874,9.90871 c 7.77118,7.77119 12.94632,9.90875 23.98957,9.90875 11.04325,0 16.21839,-2.13756 23.98957,-9.90875 z"
     id="path5"
     transform="scale(0.03)" />
  <path
     style="fill:#c4c4c4;fill-opacity:1;stroke-width:3.38983"
     d="M 327.11864,756.02953 C 217.38986,730.81288 125.82234,659.67919 76.389119,561.25176 61.568978,531.74312 44.067797,480.5859 44.067797,466.77424 c 0,-4.09871 -1.144068,-7.45577 -2.542373,-7.46014 -1.398305,-0.004 -3.01104,-19.45349 -3.583855,-43.22034 C 36.307011,348.27379 47.463537,296.87159 76.399685,238.90319 184.23307,22.878249 466.81786,-29.322607 644.92624,133.88136 c 52.8002,48.38182 100.54373,131.89618 109.48369,191.51207 1.26065,8.4065 3.26292,15.28927 4.44953,15.29505 4.06129,0.0198 4.48373,80.24023 0.56393,107.07993 -21.04498,144.09908 -121.18037,258.92034 -263.15088,301.74454 -26.8637,8.10322 -36.67329,9.21532 -89.49285,10.14573 -41.69271,0.7344 -65.36637,-0.3441 -79.66102,-3.62915 z m 168.12167,-68.36417 c 31.71372,-11.13014 74.25122,-33.40322 74.25122,-38.87878 0,-1.88319 1.36305,-2.58156 3.02898,-1.55197 1.66593,1.02959 10.73569,-5.36342 20.15498,-14.20671 9.41929,-8.84332 18.35288,-16.60014 19.85237,-17.23739 1.4995,-0.63726 10.75133,-10.55251 20.55963,-22.0339 18.50929,-21.66664 53.67576,-87.56353 56.36559,-105.62102 0.83316,-5.59322 1.83495,-10.16949 2.22621,-10.16949 0.39125,0 1.22617,-3.05085 1.85532,-6.77966 0.62919,-3.72881 2.56834,-13.64407 4.30922,-22.0339 6.668,-32.13464 3.13603,-112.86856 -5.55285,-126.92748 -1.11976,-1.81181 -2.43335,-7.02165 -2.91908,-11.57742 -1.1401,-10.69335 -24.94478,-60.29707 -38.88054,-81.01851 -13.46078,-20.01516 -73.71763,-79.49238 -77.90963,-76.90159 -1.69959,1.05043 -3.0902,0.36907 -3.0902,-1.51412 0,-5.40864 -42.30312,-27.65085 -74.25122,-39.03996 -28.49092,-10.15665 -30.53258,-10.38856 -91.85048,-10.43305 -43.65168,-0.0317 -67.86326,1.40089 -79.66102,4.7134 -27.56031,7.73825 -59.32203,21.11289 -59.32203,24.98011 0,1.97688 -0.95611,2.63822 -2.12469,1.46964 -3.01241,-3.01241 -21.60412,7.15624 -21.60412,11.81626 0,2.12726 -1.00965,2.8581 -2.24367,1.62408 -3.20855,-3.20854 -48.96135,32.15641 -51.03835,39.45046 -0.4068,1.42862 -5.44667,6.55819 -11.1997,11.39905 -23.20404,19.52491 -57.93605,82.61208 -69.66281,126.5354 -9.951647,37.27456 -9.277243,137.13309 1.03888,153.82492 1.19495,1.93349 2.53641,6.92735 2.98103,11.09756 2.38042,22.32685 45.31003,97.04634 65.53509,114.06457 5.69373,4.79099 10.35224,9.96967 10.35224,11.50824 0,3.70848 34.80509,31.39132 38.37404,30.52146 1.52944,-0.37278 4.29269,2.0238 6.14054,5.32573 1.84785,3.30193 4.7914,5.11868 6.54121,4.03725 1.74982,-1.08146 3.1815,-0.39 3.1815,1.53654 0,4.39889 18.72913,14.32634 21.60412,11.45136 1.16858,-1.16858 2.12469,-0.50725 2.12469,1.46963 0,4.60451 39.69826,20.59352 66.10169,26.62332 14.06317,3.21166 38.12046,4.34519 77.96611,3.67363 54.09549,-0.91177 59.41284,-1.598 86.76573,-11.19766 z"
     id="path6"
     transform="scale(0.03)" />
</svg>
