<?xml version="1.0" encoding="UTF-8" standalone="no"?>
<!-- Uploaded to: SVG Repo, www.svgrepo.com, Generator: SVG Repo Mixer Tools -->

<svg
   fill="#000000"
   width="800px"
   height="800px"
   viewBox="0 0 512 512"
   id="_x30_1"
   version="1.1"
   xml:space="preserve"
   sodipodi:docname="delete.svg"
   inkscape:version="1.3.2 (091e20e, 2023-11-25)"
   xmlns:inkscape="http://www.inkscape.org/namespaces/inkscape"
   xmlns:sodipodi="http://sodipodi.sourceforge.net/DTD/sodipodi-0.dtd"
   xmlns="http://www.w3.org/2000/svg"
   xmlns:svg="http://www.w3.org/2000/svg"><defs
   id="defs3" /><sodipodi:namedview
   id="namedview3"
   pagecolor="#ffffff"
   bordercolor="#000000"
   borderopacity="0.25"
   inkscape:showpageshadow="2"
   inkscape:pageopacity="0.0"
   inkscape:pagecheckerboard="0"
   inkscape:deskcolor="#d1d1d1"
   showgrid="false"
   inkscape:zoom="0.78625"
   inkscape:cx="255.00795"
   inkscape:cy="373.92687"
   inkscape:window-width="1512"
   inkscape:window-height="841"
   inkscape:window-x="0"
   inkscape:window-y="38"
   inkscape:window-maximized="0"
   inkscape:current-layer="_x30_1" />

<g
   id="g3">

<path
   d="M298.656,187.5c-10.096,0-18.281,8.185-18.281,18.281v129.188c0,10.096,8.185,18.281,18.281,18.281   s18.281-8.185,18.281-18.281V205.781C316.938,195.685,308.753,187.5,298.656,187.5z"
   id="path1" />

<path
   d="M256,0C114.615,0,0,114.615,0,256s114.615,256,256,256s256-114.615,256-256S397.385,0,256,0z M365.688,163.125v202.312   c0,20.193-16.37,36.562-36.562,36.562h-146.25c-20.193,0-36.562-16.37-36.562-36.562V163.125   c-13.462,0-24.375-10.913-24.375-24.375s10.913-24.375,24.375-24.375h49.796c3.232,0,6.332-1.284,8.618-3.57l17.236-17.236   c2.286-2.285,5.385-3.57,8.618-3.57h50.841c3.232,0,6.332,1.284,8.618,3.57l17.236,17.236c2.286,2.286,5.385,3.57,8.618,3.57   h49.795c13.462,0,24.375,10.913,24.375,24.375S379.149,163.125,365.688,163.125z"
   id="path2" />

<path
   d="M213.344,187.5c-10.096,0-18.281,8.185-18.281,18.281v129.188c0,10.096,8.185,18.281,18.281,18.281   s18.281-8.185,18.281-18.281V205.781C231.625,195.685,223.44,187.5,213.344,187.5z"
   id="path3" />

</g>

<path
   style="fill:#e6e6e6;stroke-width:1.27186"
   d="m 268.9818,624.75176 c -9.89721,-3.44179 -17.50493,-8.44365 -24.5244,-16.12407 -7.55633,-8.26783 -12.19872,-17.44583 -14.1321,-27.93918 -0.95845,-5.20195 -1.39048,-56.98975 -1.39048,-166.67717 V 254.88096 l -7.42409,-1.53342 c -10.96219,-2.26421 -19.87196,-9.01036 -25.50867,-19.31424 -3.98832,-7.29062 -4.50979,-9.29843 -4.45943,-17.17011 0.0949,-14.82654 8.53193,-27.96334 21.94015,-34.16155 5.617,-2.59657 8.30127,-2.769 53.60784,-3.44377 26.23211,-0.39068 47.93507,-0.81994 48.22879,-0.95389 0.29372,-0.13396 8.30643,-7.93543 17.80603,-17.33659 9.49962,-9.40116 18.8832,-17.70005 20.85243,-18.44197 4.86899,-1.83443 87.17527,-1.83443 92.04426,0 1.96923,0.74192 11.35281,9.04081 20.85243,18.44197 9.4996,9.40116 17.51231,17.20263 17.80604,17.33659 0.29371,0.13395 21.99667,0.56321 48.22878,0.95389 45.30657,0.67477 47.99083,0.8472 53.60785,3.44377 16.5471,7.64922 25.65272,26.53514 20.81572,43.17383 -4.2378,14.57749 -14.74398,24.507 -29.12105,27.52262 l -7.14672,1.49904 v 159.1223 c 0,109.68157 -0.43204,161.46715 -1.39048,166.66908 -3.23046,17.53321 -14.93679,32.77922 -31.42715,40.92986 l -9.65619,4.77273 -126.61682,0.28895 c -117.56324,0.2683 -127.07273,0.13042 -132.99274,-1.92829 z m 80.93975,-77.24247 c 3.40154,-2.39069 6.78962,-6.39107 9.0058,-10.63332 l 3.55278,-6.80078 -0.007,-106.37305 c -0.005,-71.06775 -0.45496,-107.98592 -1.35649,-111.23254 -1.72393,-6.20825 -9.26433,-14.58937 -15.80652,-17.56892 -5.78165,-2.63316 -14.16107,-3.00789 -21.62163,-0.96691 -7.16066,1.95895 -16.3089,11.63549 -18.23615,19.28926 -1.06256,4.21981 -1.47768,35.14255 -1.47768,110.07375 0,111.83661 -0.10624,109.87549 6.40772,118.2804 1.45562,1.87818 5.33114,5.01496 8.61228,6.97062 5.368,3.19951 6.94294,3.51759 15.71983,3.17488 8.45618,-0.33017 10.47975,-0.89083 15.20716,-4.21339 z m 129.36971,2.03631 c 2.63234,-1.34293 6.59015,-4.28693 8.79511,-6.5422 8.16824,-8.35469 7.93907,-4.89717 7.93907,-119.77328 0,-74.88056 -0.41516,-105.78744 -1.47769,-110.00709 -1.92723,-7.65377 -11.07548,-17.33031 -18.23614,-19.28926 -7.46056,-2.04098 -15.83998,-1.66625 -21.62163,0.96691 -6.54219,2.97955 -14.08259,11.36067 -15.80652,17.56892 -0.90148,3.24644 -1.35176,40.13396 -1.35649,111.12806 l -0.007,106.26855 3.24182,6.50549 c 3.16551,6.35234 8.9489,11.92502 14.82175,14.28173 5.35182,2.14763 18.53402,1.53164 23.70782,-1.10783 z"
   id="path4"
   transform="scale(0.64)" /><g
   id="g4"
   transform="matrix(0.64,0,0,0.64,251.07328,250.9136)"><path
     d="M 13.451,5.609 12.872,4.67 11.804,5.482 11.728,5.576 c -0.335,0.415 -0.927,1.341 -1.124,2.876 l -0.021,0.165 0.033,0.163 0.071,0.345 c 0,1.654 -1.346,3 -3,3 -0.795,0 -1.545,-0.311 -2.107,-0.868 C 5.017,10.69 4.707,9.94 4.707,9.146 4.707,7.715 5.714,6.514 7.058,6.217 v 2.926 c 0,0 2.528,-2.087 2.984,-2.461 h 0.012 L 13.115,4.1 8.196,0 H 7.059 V 2.404 C 3.63,2.722 0.938,5.615 0.938,9.125 c 0,1.809 0.707,3.508 1.986,4.782 1.277,1.282 2.976,1.988 4.784,1.988 3.722,0 6.75,-3.028 6.75,-6.75 0,-1.245 -0.349,-2.468 -1.007,-3.536 z"
     fill="#2d2d30"
     id="path1-9" /><path
     d="m 12.6,6.134 -0.094,0.071 c -0.269,0.333 -0.746,1.096 -0.91,2.375 0.057,0.277 0.092,0.495 0.092,0.545 0,2.206 -1.794,4 -4,4 -1.098,0 -2.093,-0.445 -2.817,-1.164 -0.718,-0.724 -1.163,-1.718 -1.163,-2.815 0,-2.206 1.794,-4 4,-4 l 0.351,0.025 v 1.85 c 0,0 1.626,-1.342 1.631,-1.339 L 11.559,4.105 8.059,1.188 V 3.406 L 7.688,3.376 c -3.176,0 -5.75,2.574 -5.75,5.75 0,1.593 0.648,3.034 1.695,4.076 1.042,1.046 2.482,1.694 4.076,1.694 3.176,0 5.75,-2.574 5.75,-5.75 C 13.458,8.04 13.141,7.011 12.6,6.134 Z"
     fill="#c5c5c5"
     id="path2-3" /></g><path
   style="fill:#666666;stroke-width:1.27186"
   d="M 386.64547,799.07706 C 332.13543,797.6299 273.54018,782.8436 223.4872,757.90465 181.38862,736.92899 147.98665,712.62286 115.01353,678.96992 50.805115,613.4377 12.604426,532.09025 2.5811078,439.5478 c -1.75875346,-16.23808 -1.75875346,-62.85752 0,-79.0956 C 11.037358,282.37803 39.903776,211.5209 87.766486,151.35135 101.19667,134.46789 127.89082,107.16944 144.15621,93.685094 205.46223,42.861082 276.71456,12.353863 355.50712,3.1936128 376.39303,0.76546149 419.27519,0.41503746 438.86775,2.5124072 534.93645,12.796496 618.24663,52.914249 684.98647,121.03009 c 64.23551,65.55986 102.40475,146.83738 112.43113,239.41056 1.74868,16.14546 1.75498,61.08061 0.011,78.35108 -7.71262,76.37682 -37.46313,149.70665 -85.1407,209.85692 -13.59586,17.1526 -46.48664,50.04338 -63.63924,63.63924 -44.15255,34.99711 -98.53186,61.85584 -151.98728,75.06875 -35.51586,8.77866 -72.48255,12.71687 -110.0159,11.72042 z M 531.52183,625.88927 c 20.23678,-6.29839 35.53896,-23.53414 39.51701,-44.51034 0.83968,-4.42763 1.2982,-63.12056 1.2982,-166.17841 V 255.86747 l 5.40541,-0.90162 c 7.47968,-1.24761 15.97418,-5.82319 21.55885,-11.61272 18.03254,-18.69401 12.15094,-50.08346 -11.57493,-61.77409 -5.67473,-2.79615 -7.28235,-2.90403 -53.54513,-3.59303 -26.23211,-0.39068 -47.93346,-0.81993 -48.22522,-0.9539 -0.29175,-0.13395 -8.0183,-7.65511 -17.17011,-16.71365 -9.72375,-9.62467 -18.60499,-17.28967 -21.36827,-18.44197 -6.9862,-2.91331 -87.80164,-2.92589 -94.83528,-0.0148 -2.77071,1.14676 -11.31139,8.49328 -20.62688,17.74279 -8.74403,8.68213 -17.50943,16.38648 -19.47866,17.1208 -2.23967,0.83516 -19.65615,1.33511 -46.51002,1.33511 -50.22781,0 -52.05341,0.29555 -62.86552,10.17721 -9.08084,8.29937 -12.78181,16.57332 -12.7994,28.61453 -0.0277,18.94112 13.46065,35.02874 31.95567,38.1137 l 5.40541,0.90162 V 415.2005 c 0,103.05785 0.45852,161.75078 1.2982,166.17841 3.93588,20.75384 19.17782,38.08202 39.09855,44.45018 6.8662,2.19495 14.64709,2.33703 131.50901,2.40138 118.44201,0.0652 124.57059,-0.0435 131.95311,-2.34122 z"
   id="path5"
   transform="scale(0.64)" /><path
   style="fill:#666666;stroke-width:1.27186"
   d="m 320.39082,547.7561 c -6.47817,-3.42009 -12.26164,-10.94559 -13.92556,-18.12011 -1.69955,-7.3281 -1.55266,-209.78171 0.15667,-215.93767 1.82632,-6.57731 10.23562,-15.44972 17.14385,-18.088 12.6891,-4.84601 27.43214,0.93946 33.88863,13.29859 l 3.55386,6.80286 v 105.58956 c 0,75.43721 -0.41456,106.97324 -1.45174,110.43504 -4.7457,15.83971 -24.4885,23.87397 -39.36571,16.01973 z"
   id="path6"
   transform="scale(0.64)" /><path
   style="fill:#666666;stroke-width:1.27186"
   d="m 454.34338,548.09314 c -6.56309,-3.33263 -12.13404,-9.79528 -14.09991,-16.35677 -1.03718,-3.4618 -1.45174,-34.99783 -1.45174,-110.43504 V 315.71177 l 3.55386,-6.80286 c 6.45649,-12.35913 21.19953,-18.1446 33.88863,-13.29859 7.03541,2.68685 15.37814,11.59685 17.20257,18.37227 0.96297,3.57621 1.2791,37.53999 1.03396,111.08507 l -0.3531,105.93393 -3.56792,6.06981 c -5.1792,8.81097 -11.92926,12.84416 -22.36466,13.36303 -6.68087,0.33217 -9.5237,-0.14868 -13.84169,-2.34129 z"
   id="path7"
   transform="scale(0.64)" /><g
   id="g7"
   transform="matrix(0.64,0,0,0.64,218.10667,217.133)"><path
     d="M 13.451,5.609 12.872,4.67 11.804,5.482 11.728,5.576 c -0.335,0.415 -0.927,1.341 -1.124,2.876 l -0.021,0.165 0.033,0.163 0.071,0.345 c 0,1.654 -1.346,3 -3,3 -0.795,0 -1.545,-0.311 -2.107,-0.868 C 5.017,10.69 4.707,9.94 4.707,9.146 4.707,7.715 5.714,6.514 7.058,6.217 v 2.926 c 0,0 2.528,-2.087 2.984,-2.461 h 0.012 L 13.115,4.1 8.196,0 H 7.059 V 2.404 C 3.63,2.722 0.938,5.615 0.938,9.125 c 0,1.809 0.707,3.508 1.986,4.782 1.277,1.282 2.976,1.988 4.784,1.988 3.722,0 6.75,-3.028 6.75,-6.75 0,-1.245 -0.349,-2.468 -1.007,-3.536 z"
     fill="#2d2d30"
     id="path1-8" /><path
     d="m 12.6,6.134 -0.094,0.071 c -0.269,0.333 -0.746,1.096 -0.91,2.375 0.057,0.277 0.092,0.495 0.092,0.545 0,2.206 -1.794,4 -4,4 -1.098,0 -2.093,-0.445 -2.817,-1.164 -0.718,-0.724 -1.163,-1.718 -1.163,-2.815 0,-2.206 1.794,-4 4,-4 l 0.351,0.025 v 1.85 c 0,0 1.626,-1.342 1.631,-1.339 L 11.559,4.105 8.059,1.188 V 3.406 L 7.688,3.376 c -3.176,0 -5.75,2.574 -5.75,5.75 0,1.593 0.648,3.034 1.695,4.076 1.042,1.046 2.482,1.694 4.076,1.694 3.176,0 5.75,-2.574 5.75,-5.75 C 13.458,8.04 13.141,7.011 12.6,6.134 Z"
     fill="#c5c5c5"
     id="path2-0" /></g><path
   style="fill:#2d2d30;stroke-width:1.27186;fill-opacity:1"
   d="M 365.02385,797.24926 C 275.55159,788.48874 190.97057,750.41184 128.45787,690.75141 91.186246,655.18039 64.685213,619.85849 43.70057,577.78266 23.658255,537.59629 11.805554,499.40287 5.0708728,453.30472 1.6259505,429.7246 1.3077714,373.22391 4.4913589,350.39746 13.938696,282.65965 37.432295,222.60691 75.314345,169.36453 88.277562,151.14502 97.068062,140.92549 118.02891,119.70609 181.44954,55.503182 257.27214,17.872062 350.39746,4.3804787 c 10.95773,-1.5875092 80.76741,-3.61127565 80.76473,-2.3413512 -8.9e-4,0.4219971 4.36369,1.1362705 9.69905,1.5872744 13.51119,1.1421127 36.46311,5.1929561 54.52827,9.6238281 112.78011,27.66177 209.25578,105.14761 261.41746,209.96122 19.26152,38.70407 31.6559,78.40798 37.51999,120.19078 1.17811,8.39427 2.38947,16.0905 2.69191,17.10274 0.98619,3.30061 1.10056,77.65087 0.11944,77.65086 -0.52464,-10e-6 -0.95389,1.93142 -0.95389,4.29208 0,7.05652 -4.96827,34.59434 -9.55153,52.9416 -13.07727,52.34968 -36.25611,101.05431 -68.92553,144.82996 -12.0025,16.08284 -54.18068,59.42132 -69.72456,71.64262 -43.90267,34.51829 -98.68105,61.55256 -151.35844,74.69856 -17.19118,4.29017 -40.54385,8.25363 -60.19314,10.21609 -12.00292,1.19878 -60.69898,1.52102 -71.40737,0.47252 z M 520.19078,627.81438 c 15.5708,-1.28471 24.42171,-5.31253 35.0675,-15.95833 7.96034,-7.96034 13.40982,-17.51464 15.7299,-27.5785 0.83061,-3.60289 1.2977,-62.67288 1.31777,-166.64793 l 0.0311,-161.06672 4.76948,-0.87798 c 6.48861,-1.19445 15.58028,-5.30245 15.58028,-7.03982 0,-0.78013 0.50606,-1.10567 1.1246,-0.7234 1.5261,0.94319 11.90293,-10.46285 10.93846,-12.02339 -0.42154,-0.68207 -0.12655,-1.24012 0.65555,-1.24012 0.78209,0 1.06826,-0.57234 0.63593,-1.27186 -0.43234,-0.69953 -0.202,-1.27186 0.51184,-1.27186 2.19559,0 4.25775,-10.41862 3.57253,-18.04945 -1.2621,-14.05546 -10.05349,-27.08921 -22.26037,-33.00233 -5.10314,-2.47199 -8.55655,-2.70621 -53.19792,-3.60796 l -47.7405,-0.96435 -5.94359,-5.56048 c -3.26898,-3.05827 -10.3792,-9.8458 -15.8005,-15.0834 -5.4213,-5.2376 -9.85692,-9.15111 -9.85692,-8.69669 0,0.45443 -1.57481,-0.74859 -3.49957,-2.67336 -4.40424,-4.40422 -6.05282,-4.54934 -51.82634,-4.562 -37.36953,-0.0103 -45.67144,0.34539 -49.21117,2.10861 -1.18379,0.58967 -9.19651,7.70078 -17.80604,15.80247 -8.60954,8.10169 -17.05867,15.68271 -18.77586,16.84669 -2.72334,1.846 -9.05934,2.20019 -49.60254,2.77283 -45.09705,0.63696 -46.65649,0.74265 -52.3976,3.55099 -6.96386,3.40647 -16.90544,13.58599 -19.82817,20.30273 -3.25493,7.48017 -2.88684,23.5353 0.72394,31.57731 5.16209,11.49708 16.81719,20.42058 29.79092,22.80884 l 4.76948,0.87798 0.0311,161.06672 c 0.0201,103.97505 0.48716,163.04504 1.31777,166.64793 3.62083,15.70609 16.52148,31.91963 31.00862,38.97165 6.21881,3.02718 9.59546,3.76594 19.0779,4.17396 6.33693,0.27266 11.76017,0.72434 12.05164,1.0037 1.00263,0.96103 216.96935,0.38352 229.0408,-0.61248 z"
   id="path8"
   transform="scale(0.64)" /><path
   style="fill:#2d2d30;fill-opacity:1;stroke-width:1.27186"
   d="m 322.36392,547.68883 c -5.6932,-2.58606 -11.50025,-8.77965 -14.14161,-15.08294 -1.4068,-3.35719 -1.72615,-23.74459 -1.72647,-110.22104 -2.7e-4,-72.17082 0.43421,-107.25655 1.35861,-109.71239 1.92727,-5.12018 9.85317,-13.0375 15.83394,-15.81681 13.09666,-6.08612 27.55221,0.65211 35.63452,16.61048 2.09591,4.13833 2.17408,10.81655 1.29528,110.65184 -0.70593,80.19585 -1.32429,107.18327 -2.52188,110.06327 -0.87264,2.09857 -3.92296,5.92375 -6.77847,8.50041 -8.27861,7.47016 -19.32581,9.38062 -28.95392,5.00718 z m 32.31433,-196.09226 c 1.56021,-2.79362 1.56581,-3.76381 0.0397,-6.87791 -3.09023,-6.3057 -5.54945,-6.85552 -9.97061,-2.22921 -4.43066,4.63627 -4.70921,6.17074 -1.85884,10.2402 2.80249,4.00112 9.26949,3.37959 11.78977,-1.13308 z"
   id="path9"
   transform="scale(0.64)" /><path
   style="fill:#2d2d30;fill-opacity:1;stroke-width:1.27186"
   d="m 455.95094,547.7075 c -5.3325,-2.4225 -12.75718,-9.9104 -14.5796,-14.70372 -0.58606,-1.54147 -1.48768,-50.56978 -2.00359,-108.95181 -1.03586,-117.21938 -1.54543,-108.2007 6.73848,-119.26038 3.77803,-5.04396 14.38317,-10.33751 20.66643,-10.31562 9.01165,0.0314 22.05135,9.37175 25.36147,18.16645 0.90997,2.41771 1.34759,38.4621 1.34759,110.99506 v 107.41465 l -3.06145,4.84966 c -7.99932,12.67174 -22.00432,17.46844 -34.46933,11.80571 z"
   id="path10"
   transform="scale(0.64)" /><path
   style="fill:#e6e6e6;fill-opacity:1;stroke-width:1.27186"
   d="M 346.04014,794.26251 C 270.83554,782.61358 204.20848,753.26719 148.1717,707.10985 131.76749,693.59774 101.3185,662.52825 87.761898,645.469 38.496665,583.47498 8.4706439,505.86849 3.6642306,428.10672 2.2326177,404.94502 2.9780435,367.21648 5.19958,350.39746 14.515379,279.86848 43.001287,211.55046 86.337823,155.80286 96.706743,142.46441 127.69662,110.53751 143.08426,97.340631 198.3024,49.983959 258.73488,21.75302 335.03798,7.6697521 c 14.37275,-2.6527793 24.64184,-3.5256099 54.51036,-4.633159 26.3908,-0.9785927 39.01102,-0.9745488 44.61225,0.014295 4.29593,0.7584079 12.67566,1.9955319 18.6216,2.7491644 15.77675,1.9996602 45.51915,8.4632555 62.32115,13.5435875 66.55344,20.123406 130.15706,60.212431 177.15195,111.65795 44.72977,48.96588 76.85714,107.75682 92.59515,169.44296 4.90689,19.23282 11.33398,54.73299 11.33398,62.60339 0,2.13603 0.42925,3.88348 0.95389,3.88323 0.52465,-2.6e-4 0.81527,14.45125 0.64582,32.11446 -0.23258,24.24299 -0.93888,36.44626 -2.88148,49.78529 -9.74526,66.91665 -31.0007,122.40931 -67.60034,176.48767 -12.9628,19.15338 -24.24159,32.09235 -52.48807,60.214 -32.40571,32.2625 -56.39521,49.30329 -99.29755,70.53537 -38.26903,18.93907 -68.46395,28.8158 -111.28776,36.40212 -18.36373,3.25316 -22.54466,3.51795 -61.04928,3.86638 -35.73631,0.32337 -43.47621,0.0424 -57.13951,-2.07395 z M 526.43593,627.59275 c 4.48412,-0.72757 11.20618,-2.81787 14.9379,-4.64511 9.30163,-4.55456 21.09396,-17.12597 26.2236,-27.95609 l 4.10368,-8.66405 0.63593,-164.56094 0.63593,-164.56093 6.91659,-1.76995 c 8.02559,-2.05374 19.0185,-8.93358 22.44767,-14.04872 6.76694,-10.09391 8.47919,-15.68811 7.89429,-25.79184 -0.67274,-11.62121 -4.18463,-19.79333 -11.7547,-27.35311 -9.94963,-9.93609 -9.505,-9.85634 -63.40505,-11.37276 l -48.07607,-1.35256 -15.1138,-14.23402 c -8.3126,-7.82872 -17.54323,-15.84144 -20.51251,-17.80604 l -5.39871,-3.57202 H 399.35639 352.7421 l -4.35197,3.38211 c -2.39359,1.86014 -11.22002,9.71094 -19.6143,17.44619 -12.98754,11.96792 -16.02057,14.16095 -20.34976,14.71386 -2.79809,0.35736 -24.5469,1.12045 -48.33068,1.69577 -38.24504,0.92511 -43.81019,1.32006 -48.14826,3.41694 -6.11086,2.95378 -16.39879,13.27197 -19.27371,19.33039 -5.02246,10.58404 -3.49023,28.73092 3.29018,38.96749 4.78975,7.2312 15.04493,14.29498 24.0682,16.57821 l 6.99523,1.77006 0.63593,164.56093 0.63593,164.56094 3.95626,8.34902 c 5.20194,10.9778 17.54636,24.17658 26.88474,28.74542 4.62059,2.26064 10.2408,3.76295 16.10868,4.30592 15.61576,1.44497 242.20022,1.32309 251.18736,-0.13511 z"
   id="path11"
   transform="scale(0.64)" /><path
   style="fill:#2d2d30;fill-opacity:1;stroke-width:1.27186"
   d="m 322.41653,546.81157 c -5.43092,-2.81879 -10.33895,-7.80945 -12.91266,-13.13003 -2.05803,-4.25453 -2.21634,-12.34755 -2.17961,-111.42399 0.0438,-118.15963 -0.51737,-110.1566 8.30649,-118.45856 13.52186,-12.72209 30.05906,-10.35638 40.41468,5.78145 l 4.24794,6.61984 -0.71052,105.81084 c -0.46382,69.06997 -1.17954,107.32328 -2.06123,110.16658 -1.66123,5.35722 -6.85674,10.98369 -13.11483,14.20269 -5.79094,2.97872 -16.67093,3.19205 -21.99026,0.43118 z m 31.37839,-193.43159 c 1.27925,-1.1577 2.32591,-3.1893 2.32591,-4.51467 0,-3.93917 -3.70896,-9.91459 -6.15401,-9.91459 -2.94146,0 -9.10831,6.43773 -9.10831,9.50839 0,6.05026 8.22942,9.18064 12.93641,4.92087 z"
   id="path12"
   transform="scale(0.64)" /><path
   style="fill:#e6e6e6;fill-opacity:1;stroke-width:1.27186"
   d="m 519.85421,626.90244 c -0.22343,-0.22343 -55.96947,-0.47873 -123.88009,-0.56733 l -123.47387,-0.16108 -6.83836,-3.23875 c -16.47097,-7.80088 -28.37856,-20.76082 -32.97301,-35.88708 -2.53831,-8.35679 -2.62077,-12.38068 -3.49482,-170.53489 l -0.89517,-161.97615 -5.72337,-1.47088 c -13.40094,-3.44397 -21.88204,-10.56959 -27.69642,-23.26987 -2.67004,-5.83212 -3.03687,-8.07887 -2.39755,-14.68443 1.36625,-14.11648 0.70425,-12.61954 10.38014,-23.47219 9.37812,-10.51869 9.78509,-10.5926 64.6754,-11.74673 l 48.29681,-1.01549 13.4662,-13.15224 c 20.33419,-19.86011 22.29325,-21.47233 27.61924,-22.72937 6.41178,-1.51332 79.74954,-1.51332 86.16132,0 5.32599,1.25704 7.28505,2.86926 27.61924,22.72937 l 13.4662,13.15224 48.43496,1.0184 c 54.92109,1.15477 55.06779,1.18196 64.75156,12.00404 9.8477,11.00526 9.65467,10.51319 9.78858,24.95214 0.0706,7.61136 -0.50909,10.6955 -2.86856,15.26232 -5.68157,10.99676 -12.30206,16.28352 -25.5763,20.42382 l -6.99523,2.18184 -0.92957,162.11463 c -0.87881,153.26058 -1.0594,162.53173 -3.30652,169.75176 -4.63371,14.88813 -14.1385,25.93139 -29.91556,34.75785 -6.47727,3.62369 -16.48592,6.7674 -17.69525,5.55807 z M 341.84814,551.29306 c 7.53311,-1.61557 13.92089,-7.18732 18.58886,-16.21417 1.8293,-3.53748 2.04313,-15.27618 2.04313,-112.1631 0,-91.8044 -0.28049,-108.88341 -1.84983,-112.63939 -1.82898,-4.37735 -12.53852,-16.02705 -14.37191,-15.63356 -0.5216,0.11195 -2.55955,-0.46122 -4.52879,-1.27371 -11.03614,-4.5534 -26.04706,1.21233 -33.66952,12.93256 l -3.44959,5.30403 v 110.65183 c 0,123.56857 -0.6963,114.13557 9.05717,122.69923 8.5652,7.52035 15.4457,9.0674 28.18048,6.33628 z m 139.2886,-2.3322 c 8.63546,-5.3558 12.35997,-10.61054 13.71228,-19.34599 0.78163,-5.04912 1.12469,-48.09284 0.90125,-113.08069 l -0.36076,-104.92846 -3.44958,-5.30403 c -7.62247,-11.72023 -22.63339,-17.48596 -33.66953,-12.93256 -1.96924,0.81249 -4.00967,1.38483 -4.53431,1.27186 -0.52464,-0.11295 -0.9539,0.36696 -0.9539,1.06648 0,0.69953 -0.7639,1.27186 -1.69755,1.27186 -2.18059,0 -8.41848,6.98918 -11.33118,12.6959 -2.11477,4.14339 -2.25779,11.42548 -2.21928,112.99438 0.037,97.45886 0.25166,108.97651 2.09868,112.58232 1.13164,2.20922 2.46432,4.30292 2.96152,4.65268 0.49719,0.34976 1.58214,1.92369 2.411,3.49762 0.82886,1.57392 2.28415,2.86168 3.23397,2.86168 0.94984,0 2.04745,0.83517 2.43916,1.85592 1.89876,4.9481 22.90114,5.52803 30.45823,0.84103 z M 404.16851,406.92312 c 3.74156,-2.6207 3.6787,-8.33452 -0.14053,-12.77463 l -2.96725,-3.44963 -4.02798,3.58895 c -4.90115,4.36694 -5.40717,9.68937 -1.20126,12.63531 1.55468,1.08894 3.43053,1.9799 4.16851,1.9799 0.73798,0 2.61383,-0.89096 4.16851,-1.9799 z"
   id="path13"
   transform="scale(0.64)" /><path
   style="fill:#2d2d30;fill-opacity:1;stroke-width:1.27186"
   d="m 322.41653,546.81157 c -5.42967,-2.81815 -10.33821,-7.80856 -12.91461,-13.13003 -2.0599,-4.25465 -2.22032,-12.34442 -2.20955,-111.42399 0.013,-119.522 -0.71469,-110.26481 9.38495,-119.38922 6.37905,-5.7631 9.82535,-7.16086 17.65568,-7.16086 7.8524,0 16.0264,5.08803 21.67694,13.49313 l 4.18202,6.2207 -0.6479,106.20032 c -0.42803,70.16115 -1.1103,107.67845 -2.01052,110.55608 -1.67768,5.36293 -6.87623,10.98758 -13.12675,14.20269 -5.79094,2.97872 -16.67093,3.19205 -21.99026,0.43118 z m 31.37839,-193.43159 c 2.68273,-2.42783 2.9361,-5.33918 0.86103,-9.89346 -2.24804,-4.93393 -5.79264,-5.36968 -10.10123,-1.24179 -2.03292,1.94766 -3.69621,4.67681 -3.69621,6.06478 0,6.18604 8.1667,9.38701 12.93641,5.07047 z"
   id="path14"
   transform="scale(0.64)" /><path
   style="fill:#2d2d30;fill-opacity:1;stroke-width:1.27186"
   d="m 519.83177,626.87999 c -0.23578,-0.23577 -55.93722,-0.46973 -123.78101,-0.5199 l -123.35233,-0.0912 -6.93745,-3.28617 c -16.61049,-7.86813 -28.30438,-20.52938 -33.08579,-35.82275 -2.60644,-8.3367 -2.65581,-10.87594 -3.29271,-169.35391 -0.35562,-88.48966 -0.84231,-161.53345 -1.08151,-162.31953 -0.23921,-0.78608 -2.59527,-1.83451 -5.2357,-2.32986 -12.25476,-2.29901 -22.38941,-10.69844 -28.18617,-23.36024 -2.67004,-5.83212 -3.03687,-8.07887 -2.39755,-14.68443 1.39165,-14.3789 0.54555,-12.40457 9.74421,-22.73777 10.31132,-11.58311 10.50958,-11.61552 80.01452,-13.08081 l 33.59163,-0.70818 17.64556,-17.07759 c 13.56338,-13.12683 18.80312,-17.3893 22.64925,-18.42496 6.68928,-1.80123 81.05728,-1.80123 87.74656,0 3.84605,1.03564 9.08532,5.29761 22.64552,18.42134 l 17.64182,17.07399 48.37692,1.1995 c 43.78343,1.0856 48.90563,1.43659 53.94513,3.69648 5.83512,2.61667 15.84157,11.87513 17.09175,15.81414 0.4018,1.26594 1.13948,2.30171 1.63929,2.30171 1.31021,0 2.02253,5.68918 1.99056,15.89825 -0.0222,7.10624 -0.7078,10.21809 -3.39689,15.4192 -4.60133,8.89967 -13.11565,16.1197 -22.22021,18.84241 -4.03829,1.20765 -8.05776,2.41683 -8.93216,2.68708 -1.25303,0.38725 -1.59268,20.50586 -1.60328,94.96688 -0.007,51.96154 -0.33492,124.80939 -0.7278,161.88411 -0.81514,76.92112 -0.9398,77.9513 -11.10111,91.73835 -6.07494,8.2426 -10.54895,12.01764 -21.67336,18.28737 -6.52176,3.67565 -16.47991,6.80429 -17.71769,5.56651 z M 347.06403,549.52056 c 4.55011,-2.3564 11.40108,-10.09983 13.60717,-15.37975 1.5383,-3.68168 1.76918,-21.19778 1.49601,-113.50073 -0.36086,-121.93789 0.58209,-110.3919 -9.8682,-120.83024 -2.99355,-2.99011 -5.73804,-5.14134 -6.09888,-4.78051 -0.36084,0.36084 -1.51212,-0.0544 -2.5584,-0.92272 -2.9498,-2.44812 -17.8691,-1.92796 -22.96627,0.8007 -4.59931,2.46214 -11.61346,9.06233 -11.61346,10.92805 0,0.62543 -1.00159,2.13874 -2.22575,3.36291 -2.08447,2.08448 -2.22576,9.01334 -2.22576,109.15285 0,58.80991 0.47754,109.78878 1.06119,113.2864 0.89351,5.35452 2.0721,7.31409 7.45937,12.40215 3.519,3.32356 8.1925,6.59567 10.38555,7.27135 5.0432,1.55379 19.1629,0.48019 23.54743,-1.79046 z m 127.42325,1.69408 c 5.0823,-1.08996 7.94078,-2.74419 12.6371,-7.3132 9.31196,-9.05954 9.163,-6.86289 8.68052,-128.00319 l -0.41539,-104.29253 -4.22276,-6.04 c -2.3225,-3.32199 -6.73113,-7.51001 -9.79693,-9.30669 -6.65871,-3.90226 -17.36192,-5.31078 -22.86426,-3.00889 -2.09856,0.87792 -4.24483,1.50382 -4.76947,1.39085 -0.52464,-0.11295 -0.9539,0.36696 -0.9539,1.06648 0,0.69953 -0.6046,1.27186 -1.34355,1.27186 -1.48492,0 -7.8779,6.51821 -11.1715,11.39032 -1.92002,2.84022 -2.14059,12.99256 -2.43422,112.03775 -0.22128,74.64009 0.10386,110.13867 1.03318,112.80453 1.89371,5.43231 12.58701,16.70846 17.13068,18.06441 5.32529,1.5892 10.87902,1.57067 18.4905,-0.0617 z M 404.16851,406.92312 c 3.74156,-2.6207 3.6787,-8.33452 -0.14053,-12.77463 l -2.96725,-3.44963 -4.02798,3.58895 c -4.90115,4.36694 -5.40717,9.68937 -1.20126,12.63531 1.55468,1.08894 3.43053,1.9799 4.16851,1.9799 0.73798,0 2.61383,-0.89096 4.16851,-1.9799 z"
   id="path15"
   transform="scale(0.64)" /><path
   style="fill:#e6e6e6;fill-opacity:1;stroke-width:1.27186"
   d="m 322.41653,546.81157 c -5.40604,-2.80588 -10.32402,-7.79168 -12.95142,-13.13003 -2.10939,-4.28588 -2.25529,-11.61726 -2.21746,-111.42399 0.0453,-119.53733 -0.68837,-110.24819 9.42967,-119.38922 6.37905,-5.7631 9.82535,-7.16086 17.65568,-7.16086 7.88141,0 16.60929,5.43611 21.92418,13.65536 l 3.91765,6.05847 -0.60023,106.83625 c -0.43889,78.11869 -1.0055,107.86188 -2.10792,110.65183 -2.00142,5.06512 -7.25702,10.48616 -13.05989,13.47101 -5.79094,2.97872 -16.67093,3.19205 -21.99026,0.43118 z m 31.16058,-193.87039 c 3.37094,-3.37094 3.2099,-6.71646 -0.53228,-11.05786 l -3.076,-3.56853 -3.60126,2.67363 c -5.14489,3.81965 -6.6118,8.62617 -3.63613,11.91424 2.9742,3.28645 7.58137,3.30281 10.84567,0.0385 z"
   id="path16"
   transform="scale(0.64)" /><path
   style="fill:#e6e6e6;fill-opacity:1;stroke-width:1.27186"
   d="m 455.96184,546.81157 c -4.88869,-2.53736 -10.58406,-7.92973 -12.6684,-11.9944 -3.1425,-6.12823 -5.02353,-212.97415 -2.00667,-220.66209 5.57483,-14.20648 22.89916,-22.37657 34.77003,-16.39743 5.11484,2.57625 12.02321,9.01898 14.27323,13.31118 1.38469,2.64147 1.87998,24.27024 2.54845,111.28776 l 0.82973,108.00907 -4.92227,6.34102 c -6.59516,8.49609 -13.08562,12.05549 -22.01328,12.07219 -3.87566,0.007 -8.69682,-0.87008 -10.81082,-1.9673 z"
   id="path17"
   transform="scale(0.64)" /><path
   style="fill:#424242;fill-opacity:1;stroke-width:1.27186"
   d="m 325.59618,625.16515 -55.32591,-0.68184 -8.03254,-4.35521 c -10.68713,-5.79452 -20.83998,-16.16194 -25.90701,-26.45454 -3.89904,-7.92008 -4.14079,-9.2798 -5.01083,-28.18356 -0.50278,-10.92411 -0.95893,-58.83002 -1.01368,-106.45757 -0.0547,-47.62756 -0.47789,-113.22027 -0.94034,-145.76159 l -0.8408,-59.16603 -8.63644,-2.78155 c -15.85069,-5.10506 -26.5659,-19.26471 -26.5659,-35.10561 0,-10.28708 1.78422,-14.69177 9.34536,-23.07085 10.10595,-11.19917 12.44313,-11.61697 72.96041,-13.04264 l 40.97032,-0.96518 15.19028,-14.75077 c 8.35465,-8.11292 17.59131,-16.3397 20.52591,-18.28173 l 5.33565,-3.53096 H 400 442.34934 l 5.33565,3.53096 c 2.9346,1.94203 12.17635,10.17375 20.53723,18.29272 l 15.2016,14.76177 39.05121,0.95924 c 63.21643,1.55284 62.56316,1.44938 73.64408,11.66341 8.92109,8.22319 10.95875,13.33886 10.30142,25.86253 -0.46464,8.85253 -1.14143,11.45115 -4.32716,16.61461 -4.64489,7.52848 -13.15967,14.01114 -22.9698,17.48789 l -7.42246,2.63055 -0.78115,50.87081 c -0.42963,27.97895 -0.87847,92.07908 -0.99742,142.44474 -0.22243,94.19029 -1.3594,134.03972 -4.04614,141.8124 -2.3432,6.77885 -12.22109,20.0435 -18.14391,24.36477 -2.90629,2.12042 -8.71818,5.6616 -12.91532,7.86928 l -7.63116,4.01397 -73.13196,0.0459 c -40.22257,0.0253 -98.02861,-0.26091 -128.45787,-0.63593 z m 22.51861,-75.52773 c 4.38843,-2.26934 11.06607,-10.12368 13.05535,-15.35591 1.61424,-4.24577 1.71948,-204.18513 0.11476,-218.04115 -1.00887,-8.71104 -1.4652,-9.74741 -6.62142,-15.03761 -6.6071,-6.77879 -12.05599,-9.31334 -20.00163,-9.30376 -12.1751,0.0147 -20.7629,4.76919 -27.14091,15.0262 l -2.91045,4.68053 -0.36038,103.97457 c -0.19821,57.18601 0.1112,103.97456 0.68758,103.97456 0.57639,0 0.82535,3.67191 0.55326,8.15981 -0.49201,8.11537 -0.46459,8.19261 5.03579,14.18597 9.08772,9.90222 11.54578,10.98651 23.41681,10.32947 5.81314,-0.32175 11.95141,-1.44476 14.17124,-2.59268 z m 128.9353,1.53295 c 5.38309,-1.61282 14.49143,-9.66997 16.82748,-14.88544 1.12155,-2.50397 1.60588,-32.15702 1.87574,-114.84324 l 0.36379,-111.4677 -7.35902,-7.66798 c -8.42894,-8.7828 -14.15119,-11.01053 -26.06805,-10.14854 -6.27333,0.45376 -8.12644,1.23609 -13.28524,5.60858 -3.29725,2.7947 -7.17715,6.66423 -8.622,8.59897 -2.59965,3.48108 -2.63101,4.6516 -3.01264,112.4873 -0.21212,59.9333 -0.0287,110.90666 0.40767,113.27415 0.83813,4.5476 11.81901,17.3803 16.51216,19.29677 3.79544,1.54987 16.83526,1.4024 22.36011,-0.25287 z M 404.53512,407.58642 c 3.59575,-1.92439 3.34206,-10.23483 -0.4469,-14.63976 l -2.90702,-3.3796 -4.08821,3.81896 c -8.68209,8.11029 -2.65762,19.60561 7.44213,14.2004 z"
   id="path18"
   transform="scale(0.64)" /><path
   style="fill:#f6f6f6;fill-opacity:1;stroke-width:1.27186"
   d="M 352.30525,794.61866 C 342.1294,793.42371 308.9148,786.29852 294.22461,782.15921 231.29344,764.42685 175.63395,732.99749 129.90844,689.3745 69.928769,632.15274 32.957561,568.95515 13.924257,491.11429 5.9998588,458.70572 4.555053,444.37941 4.5429971,398.09221 4.5331423,360.25497 4.8143921,354.49222 7.3983498,339.58665 18.904847,273.21133 44.520004,212.99158 82.986488,161.88331 96.448976,143.99645 136.30915,103.3334 154.51401,88.915061 207.42166,47.011941 268.72851,19.837304 336.49066,8.2527884 372.00271,2.1817014 427.28272,1.8275804 459.55139,7.4644677 521.99032,18.371681 569.48983,36.968426 619.39587,70.045889 696.50751,121.15509 755.56183,201.34217 781.06095,289.56331 c 4.17087,14.43028 11.54812,49.86844 14.12019,67.82938 2.3962,16.73286 1.90673,70.96519 -0.80927,89.66613 -8.74727,60.22886 -26.16373,109.80854 -55.74538,158.69113 -14.23897,23.52939 -24.92118,37.6146 -44.85068,59.1387 -29.447,31.80311 -57.24856,55.47118 -84.53936,71.97019 -17.5948,10.63717 -55.54011,29.13271 -73.36255,35.75884 -26.87068,9.99013 -62.2105,18.58884 -88.81508,21.61005 -10.7595,1.22185 -85.06704,1.52842 -94.75357,0.39093 z M 529.34916,627.50352 c 3.70693,-0.78723 9.31539,-2.63375 12.46324,-4.10339 8.05005,-3.75834 20.255,-16.62956 25.83153,-27.24172 l 4.69311,-8.93103 7.4e-4,-43.69317 c 4.1e-4,-24.03127 0.38053,-98.14585 0.84473,-164.69911 l 0.844,-121.00591 5.1966,-1.55386 c 20.16238,-6.02887 31.26974,-19.36146 31.26974,-37.53427 0,-13.32759 -2.66544,-20.77525 -10.5052,-29.35319 -3.64861,-3.99216 -8.60895,-8.08372 -11.02299,-9.09238 -4.32561,-1.80735 -24.35737,-3.05155 -79.07105,-4.91118 l -22.37985,-0.76067 -15.14002,-13.94194 c -8.32702,-7.66805 -17.53251,-15.62291 -20.45664,-17.67746 l -5.31659,-3.73556 -47.4656,0.003 -47.46559,0.003 -17.80604,15.95992 c -9.79333,8.77796 -19.36533,16.79653 -21.27114,17.81904 -2.66787,1.43139 -12.61702,2.14034 -43.24324,3.08141 -60.85291,1.86986 -58.61649,1.40392 -70.8182,14.75453 -7.22633,7.90676 -9.00629,12.79825 -9.01645,24.77814 -0.0175,20.66597 10.66895,34.55415 31.26261,40.62888 l 5.19658,1.53289 0.84476,122.17031 c 0.46461,67.19367 0.84476,141.30826 0.84476,164.6991 v 42.52879 l 4.69311,8.93103 c 8.48028,16.138 23.39112,28.64373 37.44583,31.40584 8.75622,1.72082 251.42548,1.66404 259.54726,-0.0607 z"
   id="path19"
   transform="scale(0.64)" /><path
   style="fill:#f6f6f6;fill-opacity:1;stroke-width:1.27186"
   d="m 319.243,543.50929 c -3.08477,-2.35284 -6.78053,-6.27267 -8.2128,-8.71075 -2.55295,-4.34577 -2.61155,-6.32818 -2.98169,-100.88409 -0.21966,-56.11292 0.14216,-102.06066 0.86513,-109.86376 1.17853,-12.71994 1.46075,-13.63822 5.46501,-17.78215 6.70175,-6.93551 11.64228,-9.4283 18.79598,-9.48371 9.88779,-0.0766 19.43385,6.5231 25.1952,17.41875 0.97423,1.84243 1.09599,33.69003 0.41872,109.52094 -1.07295,120.13416 -0.22827,110.73276 -10.71019,119.20489 -4.2367,3.42436 -6.04505,3.99013 -14.04475,4.39409 -8.78395,0.44357 -9.42504,0.27826 -14.79061,-3.81421 z m 34.55192,-190.12931 c 3.08396,-2.79094 2.94793,-8.20801 -0.31013,-12.34995 -3.30531,-4.20203 -3.83751,-4.18125 -8.6762,0.33876 -4.18282,3.90734 -5.30058,9.71315 -2.42385,12.58987 2.2042,2.20421 8.69911,1.87482 11.41018,-0.57868 z"
   id="path20"
   transform="scale(0.64)" /><path
   style="fill:#f6f6f6;fill-opacity:1;stroke-width:1.27186"
   d="m 453.01888,543.74544 c -8.93794,-6.47461 -9.44653,-7.97749 -10.69837,-31.61336 -0.61738,-11.65675 -1.23466,-60.39917 -1.37175,-108.3165 l -0.24924,-87.12242 3.4172,-5.81263 c 5.0386,-8.57061 12.20763,-13.04632 21.88407,-13.66247 7.32777,-0.46659 8.23954,-0.21087 13.41972,3.76388 10.88256,8.35018 10.78137,8.0138 11.68146,38.83246 0.43995,15.06359 1.01228,64.11479 1.27186,109.00268 l 0.47196,81.61433 -4.99635,6.09836 c -6.56051,8.0075 -12.58342,11.006 -22.10715,11.006 -6.29384,0 -8.32721,-0.60575 -12.72341,-3.79033 z"
   id="path21"
   transform="scale(0.64)" /></svg>
