<?xml version="1.0" encoding="UTF-8" standalone="no"?>
<!-- Uploaded to: SVG Repo, www.svgrepo.com, Generator: SVG Repo Mixer Tools -->

<svg
   width="800px"
   height="800px"
   viewBox="0 0 24 24"
   fill="none"
   version="1.1"
   id="svg1"
   sodipodi:docname="upload.svg"
   inkscape:version="1.3.2 (091e20e, 2023-11-25)"
   xmlns:inkscape="http://www.inkscape.org/namespaces/inkscape"
   xmlns:sodipodi="http://sodipodi.sourceforge.net/DTD/sodipodi-0.dtd"
   xmlns="http://www.w3.org/2000/svg"
   xmlns:svg="http://www.w3.org/2000/svg">
  <defs
     id="defs1" />
  <sodipodi:namedview
     id="namedview1"
     pagecolor="#ffffff"
     bordercolor="#000000"
     borderopacity="0.25"
     inkscape:showpageshadow="2"
     inkscape:pageopacity="0.0"
     inkscape:pagecheckerboard="0"
     inkscape:deskcolor="#d1d1d1"
     inkscape:zoom="0.295"
     inkscape:cx="398.30508"
     inkscape:cy="400"
     inkscape:window-width="1512"
     inkscape:window-height="841"
     inkscape:window-x="0"
     inkscape:window-y="38"
     inkscape:window-maximized="1"
     inkscape:current-layer="svg1" />
  <path
     d="M16 12L12 8M12 8L8 12M12 8V16M22 12C22 17.5228 17.5228 22 12 22C6.47715 22 2 17.5228 2 12C2 6.47715 6.47715 2 12 2C17.5228 2 22 6.47715 22 12Z"
     stroke="#000000"
     stroke-width="2"
     stroke-linecap="round"
     stroke-linejoin="round"
     id="path1" />
  <path
     style="fill:#c5c5c5;stroke-width:3.38983;fill-opacity:1"
     d="m 379.40026,554.49804 -9.90873,-9.90873 v -98.56584 c 0,-54.21122 -1.17009,-98.56584 -2.60019,-98.56584 -1.4301,0 -19.35383,16.88661 -39.83051,37.52581 -20.47667,20.63919 -41.53658,39.80374 -46.79978,42.58788 -19.63353,10.38578 -44.32885,-5.15406 -44.32885,-27.89449 0,-11.13381 5.5173,-17.50406 76.25422,-88.04291 69.54837,-69.35362 77.27076,-76.0407 87.81358,-76.0407 10.54282,0 18.26521,6.68708 87.81358,76.0407 70.73692,70.53885 76.25422,76.9091 76.25422,88.04291 0,22.74043 -24.69532,38.28027 -44.32885,27.89449 -5.2632,-2.78414 -26.32311,-21.94869 -46.79978,-42.58788 -20.47668,-20.6392 -38.40041,-37.52581 -39.83051,-37.52581 -1.4301,0 -2.60019,44.35462 -2.60019,98.56584 v 98.56584 l -9.90873,9.90873 c -13.32207,13.32207 -27.87741,13.32207 -41.19948,0 z"
     id="path2"
     transform="scale(0.03)" />
  <path
     style="fill:#c5c5c5;fill-opacity:1;stroke-width:3.38983"
     d="m 379.9211,552.24104 -10.42957,-8.77591 v -98.00375 c 0,-68.44403 -1.11396,-98.00375 -3.69328,-98.00375 -2.0313,0 -21.72422,17.47877 -43.76204,38.84173 -23.06199,22.35576 -44.05548,39.84232 -49.46166,41.19919 -11.60988,2.91389 -24.71031,-3.8786 -31.78285,-16.47921 -4.68257,-8.34258 -4.57559,-10.1966 1.2081,-20.93626 3.4901,-6.48072 38.01365,-43.12943 76.719,-81.44157 62.1467,-61.51537 71.64452,-69.65846 81.24714,-69.65846 9.5687,0 18.82113,7.83188 77.0901,65.25424 68.69846,67.70031 85.65582,87.1464 85.65582,98.22699 0,10.45149 -18.22465,26.34928 -30.20586,26.34928 -8.67082,0 -17.36234,-6.72553 -52.56879,-40.67797 -23.19921,-22.37288 -43.81127,-40.67796 -45.80456,-40.67796 -2.48878,0 -3.62418,30.70311 -3.62418,98.00375 v 98.00375 l -10.42957,8.77591 c -5.87486,4.94337 -14.64355,8.77591 -20.0789,8.77591 -5.43535,0 -14.20404,-3.83254 -20.0789,-8.77591 z"
     id="path3"
     transform="scale(0.03)" />
  <path
     style="fill:#2d2d30;fill-opacity:1;stroke-width:3.38983"
     d="M 336.72589,759.38739 C 200.47599,734.66532 87.791908,632.69539 49.518027,499.48766 -16.821183,268.60182 159.22171,35.59322 400,35.59322 c 240.69353,0 416.82247,233.01577 350.52647,463.74088 -38.618,134.39939 -151.55966,236.00848 -289.1061,260.09719 -34.26769,6.00132 -91.48857,5.98118 -124.69448,-0.0439 z m 126.97635,-64.70047 c 50.9541,-10.36133 101.12335,-36.48539 141.57223,-73.71936 56.25038,-51.77953 90.40007,-124.35105 95.32797,-202.58149 5.56793,-88.39112 -25.16627,-168.56463 -88.91532,-231.94539 -43.22075,-42.97107 -92.08898,-69.76139 -147.98488,-81.1276 -37.72119,-7.670453 -98.99841,-6.962053 -134.52766,1.55523 -108.14844,25.92596 -191.80332,108.41091 -221.65529,218.55542 -10.485205,38.68717 -10.485205,110.46535 0,149.15254 30.50069,112.53807 117.3753,196.39658 228.07393,220.15566 30.39263,6.52312 95.922,6.5001 128.10902,-0.045 z"
     id="path4"
     transform="scale(0.03)" />
  <path
     style="fill:#2d2d30;fill-opacity:1;stroke-width:3.38983"
     d="M 336.38389,691.27553 C 179.84855,656.98234 75.931783,498.13624 108.09324,342.31275 132.35006,224.78756 223.14384,132.97649 339.48008,108.33338 c 31.94102,-6.76596 89.09882,-6.76596 121.03985,0 159.03838,33.68857 263.87088,191.96741 231.38682,349.35387 -24.1335,116.92773 -115.59004,209.58411 -230.78922,233.81702 -29.93644,6.29732 -95.49342,6.17712 -124.73364,-0.22874 z m 87.60568,-133.38767 9.90874,-9.90871 v -99.36244 -99.36243 l 42.42386,42.32201 c 41.22437,41.1254 42.83902,42.32202 57.10614,42.32202 16.88667,0 24.9901,-5.49528 31.6705,-21.47714 8.3855,-20.06096 2.96838,-27.62873 -76.31708,-106.61582 -97.78417,-97.41619 -79.77929,-97.41619 -177.56347,0 -79.28546,78.98709 -84.70258,86.55486 -76.31709,106.61582 6.68042,15.98186 14.78385,21.47714 31.67054,21.47714 14.26712,0 15.88173,-1.19662 57.10611,-42.32202 l 42.42387,-42.32201 v 99.36243 99.36244 l 9.90874,9.90871 c 7.77118,7.77119 12.94632,9.90875 23.98957,9.90875 11.04325,0 16.21839,-2.13756 23.98957,-9.90875 z"
     id="path5"
     transform="scale(0.03)" />
  <path
     style="fill:#c5c5c5;fill-opacity:1;stroke-width:3.38983"
     d="M 325.42373,686.28241 C 275.26626,673.33129 219.38604,639.49576 184.9678,601.23624 152.39337,565.02631 132.34954,530.35108 116.65135,483.05085 107.75991,456.26003 107.0886,450.42976 107.0886,400 c 0,-50.23039 0.69936,-56.36595 9.46658,-83.05085 35.11521,-106.88059 119.97919,-185.23007 224.12279,-206.91822 26.17731,-5.45149 92.46675,-5.45149 118.64406,0 90.39377,18.82471 169.8919,83.38006 210.17882,170.6727 19.88617,43.08883 23.63674,62.41148 23.48471,120.99129 -0.12536,48.30474 -0.90509,54.86623 -9.668,81.35593 -17.11959,51.75139 -39.87742,89.22766 -76.3057,125.65593 -38.7904,38.79041 -84.11739,64.94271 -135.20362,78.00834 -35.48703,9.07607 -110.41645,8.85457 -146.38451,-0.43271 z m 98.76692,-125.59431 9.98299,-7.10851 -0.28458,-56.45081 c -0.15651,-31.04797 -0.21846,-76.15122 -0.13766,-100.2295 l 0.14691,-43.77869 40.20616,39.35841 c 22.18289,21.71511 44.22661,40.36746 49.17485,41.60939 16.23722,4.07529 32.36976,-1.25822 39.58156,-13.08588 8.47576,-13.90066 8.35556,-24.91123 -0.42932,-39.32112 -8.488,-13.92295 -110.01268,-117.96965 -133.07494,-136.3807 -22.44083,-17.91495 -36.24896,-17.92223 -58.71324,-0.031 -22.37699,17.82174 -124.96451,123.11048 -133.34559,136.8567 -8.52075,13.97529 -8.5661,25.0875 -0.15866,38.87609 7.21178,11.82766 23.34432,17.16117 39.58156,13.08588 4.94824,-1.24193 26.99197,-19.89428 49.17482,-41.60939 l 40.20618,-39.35841 0.15015,45.4736 c 0.0826,25.01048 0.0196,70.08862 -0.13996,100.17367 l -0.2901,54.70004 9.46199,7.05698 c 12.78346,9.53417 35.63946,9.61044 48.90688,0.16322 z"
     id="path6"
     transform="scale(0.03)" />
  <path
     style="fill:#2d2d30;fill-opacity:1;stroke-width:3.38983"
     d="m 379.9211,552.24104 -10.42957,-8.77591 v -98.00375 c 0,-64.05378 -1.19213,-98.00375 -3.44134,-98.00375 -1.89273,0 -21.65092,17.49516 -43.90709,38.87813 -22.65422,21.76541 -44.53632,39.89978 -49.7136,41.1992 -11.45565,2.87518 -24.60759,-3.99042 -31.6378,-16.51562 -4.68257,-8.34258 -4.57559,-10.1966 1.2081,-20.93626 3.4901,-6.48072 38.01365,-43.12943 76.719,-81.44157 62.1467,-61.51537 71.64452,-69.65846 81.24714,-69.65846 9.5687,0 18.82113,7.83188 77.0901,65.25424 68.69846,67.70031 85.65582,87.1464 85.65582,98.22699 0,10.39551 -18.22431,26.34928 -30.09931,26.34928 -8.51518,0 -17.58963,-6.9894 -52.81285,-40.67797 -23.39206,-22.37288 -44.05206,-40.67796 -45.91112,-40.67796 -2.16898,0 -3.38011,35.1158 -3.38011,98.00375 v 98.00375 l -10.42957,8.77591 c -5.87486,4.94337 -14.64355,8.77591 -20.0789,8.77591 -5.43535,0 -14.20404,-3.83254 -20.0789,-8.77591 z"
     id="path7"
     transform="scale(0.03)" />
  <path
     style="fill:#2d2d30;fill-opacity:1;stroke-width:3.38983"
     d="M 327.11864,756.02953 C 217.38986,730.81288 125.82234,659.67919 76.389119,561.25176 61.568978,531.74312 44.067797,480.5859 44.067797,466.77424 c 0,-4.09871 -1.144068,-7.45577 -2.542373,-7.46014 -1.398305,-0.004 -3.01104,-19.45349 -3.583855,-43.22034 C 36.307011,348.27379 47.463537,296.87159 76.399685,238.90319 184.23307,22.878249 466.81786,-29.322607 644.92624,133.88136 c 52.8002,48.38182 100.54373,131.89618 109.48369,191.51207 1.26065,8.4065 3.26292,15.28927 4.44953,15.29505 4.06129,0.0198 4.48373,80.24023 0.56393,107.07993 -21.04498,144.09908 -121.18037,258.92034 -263.15088,301.74454 -26.8637,8.10322 -36.67329,9.21532 -89.49285,10.14573 -41.69271,0.7344 -65.36637,-0.3441 -79.66102,-3.62915 z m 168.12167,-68.36417 c 31.71372,-11.13014 74.25122,-33.40322 74.25122,-38.87878 0,-1.88319 1.36305,-2.58156 3.02898,-1.55197 1.66593,1.02959 10.73569,-5.36342 20.15498,-14.20671 9.41929,-8.84332 18.35288,-16.60014 19.85237,-17.23739 1.4995,-0.63726 10.75133,-10.55251 20.55963,-22.0339 18.50929,-21.66664 53.67576,-87.56353 56.36559,-105.62102 0.83316,-5.59322 1.83495,-10.16949 2.22621,-10.16949 0.39125,0 1.22617,-3.05085 1.85532,-6.77966 0.62919,-3.72881 2.56834,-13.64407 4.30922,-22.0339 6.668,-32.13464 3.13603,-112.86856 -5.55285,-126.92748 -1.11976,-1.81181 -2.43335,-7.02165 -2.91908,-11.57742 -1.1401,-10.69335 -24.94478,-60.29707 -38.88054,-81.01851 -13.46078,-20.01516 -73.71763,-79.49238 -77.90963,-76.90159 -1.69959,1.05043 -3.0902,0.36907 -3.0902,-1.51412 0,-5.40864 -42.30312,-27.65085 -74.25122,-39.03996 -28.49092,-10.15665 -30.53258,-10.38856 -91.85048,-10.43305 -43.65168,-0.0317 -67.86326,1.40089 -79.66102,4.7134 -27.56031,7.73825 -59.32203,21.11289 -59.32203,24.98011 0,1.97688 -0.95611,2.63822 -2.12469,1.46964 -3.01241,-3.01241 -21.60412,7.15624 -21.60412,11.81626 0,2.12726 -1.00965,2.8581 -2.24367,1.62408 -3.20855,-3.20854 -48.96135,32.15641 -51.03835,39.45046 -0.4068,1.42862 -5.44667,6.55819 -11.1997,11.39905 -23.20404,19.52491 -57.93605,82.61208 -69.66281,126.5354 -9.951647,37.27456 -9.277243,137.13309 1.03888,153.82492 1.19495,1.93349 2.53641,6.92735 2.98103,11.09756 2.38042,22.32685 45.31003,97.04634 65.53509,114.06457 5.69373,4.79099 10.35224,9.96967 10.35224,11.50824 0,3.70848 34.80509,31.39132 38.37404,30.52146 1.52944,-0.37278 4.29269,2.0238 6.14054,5.32573 1.84785,3.30193 4.7914,5.11868 6.54121,4.03725 1.74982,-1.08146 3.1815,-0.39 3.1815,1.53654 0,4.39889 18.72913,14.32634 21.60412,11.45136 1.16858,-1.16858 2.12469,-0.50725 2.12469,1.46963 0,4.60451 39.69826,20.59352 66.10169,26.62332 14.06317,3.21166 38.12046,4.34519 77.96611,3.67363 54.09549,-0.91177 59.41284,-1.598 86.76573,-11.19766 z"
     id="path8"
     transform="scale(0.03)" />
  <path
     style="fill:#2d2d30;fill-opacity:1;stroke-width:3.38983"
     d="m 379.20359,548.0364 -10.73387,-9.59071 0.4155,-95.49403 c 0.3187,-73.24505 -0.54951,-95.4673 -3.72638,-95.37928 -2.27804,0.0631 -22.44698,16.9011 -44.81986,37.41774 -22.37288,20.51664 -44.00007,38.14511 -48.06043,39.17438 -17.53337,4.44456 -34.29013,-11.29211 -30.04298,-28.21409 1.43828,-5.73056 29.45163,-36.33038 74.50187,-81.38062 63.80131,-63.80132 73.45335,-72.19691 83.00152,-72.19691 9.47459,0 18.88194,7.95743 76.42244,64.64372 75.35341,74.23476 85.87593,87.28902 81.16279,100.69074 -4.04399,11.49905 -17.87075,19.42021 -29.01606,16.62291 -4.68063,-1.17476 -26.69357,-18.93665 -48.91766,-39.47087 -22.22408,-20.53422 -42.2817,-37.34998 -44.57249,-37.36835 -3.21022,-0.0258 -4.02253,21.82142 -3.5433,95.29704 l 0.62177,95.33045 -10.91696,9.7543 c -14.23191,12.71621 -27.66818,12.76883 -41.7759,0.16358 z"
     id="path9"
     transform="scale(0.03)" />
  <path
     style="fill:#2d2d30;fill-opacity:1;stroke-width:3.38983"
     d="m 378.86704,547.72213 -11.07043,-9.90499 0.97763,-95.17976 c 0.71135,-69.25492 -0.0692,-95.17975 -2.86566,-95.17975 -2.11381,0 -21.62155,16.19 -43.35052,35.97777 -21.72897,19.78778 -42.82693,37.52375 -46.88436,39.41327 -17.26853,8.04188 -38.01826,-8.64959 -33.43813,-26.89826 1.43828,-5.73056 29.45163,-36.33038 74.50187,-81.38062 63.66232,-63.66233 73.4683,-72.19691 82.95202,-72.19691 9.37167,0 18.64806,7.73967 72.11627,60.16949 66.1223,64.83818 87.5163,89.18882 87.5163,99.61103 0,9.90295 -15.08784,23.27033 -26.26537,23.27033 -7.55954,0 -18.6834,-8.34315 -51.849,-38.88794 -23.22353,-21.38837 -44.2422,-38.93074 -46.70813,-38.98305 -3.65659,-0.0776 -4.13694,17.17234 -2.60439,93.52623 l 1.87913,93.62134 -11.46341,11.4634 c -14.79438,14.79438 -28.11637,15.27227 -43.44382,1.55842 z"
     id="path10"
     transform="scale(0.03)" />
  <path
     style="fill:#f6f6f6;fill-opacity:1;stroke-width:3.38983"
     d="m 361.88679,689.61759 c -88.42559,-7.78467 -176.662,-70.02013 -220.7762,-155.71928 -27.71461,-53.84024 -30.9509,-68.05516 -30.8703,-135.59323 0.0642,-53.83574 0.81337,-61.35979 8.10018,-81.35593 18.55695,-50.92312 44.01127,-91.81894 78.22347,-125.67665 37.25421,-36.86818 77.91337,-60.76965 127.45212,-74.92268 22.50775,-6.43038 35.02503,-7.66424 77.67886,-7.65702 43.52189,0.007 54.48616,1.13493 76.10396,7.8265 79.53271,24.61852 144.04814,78.54807 182.68075,152.70595 26.30115,50.48687 29.22498,63.53996 29.29278,130.77475 0.0524,51.98322 -0.73573,59.95108 -8.04746,81.35593 -28.60854,83.75075 -82.87783,146.82295 -157.47603,183.01976 -48.13143,23.35451 -97.18158,30.98017 -162.36213,25.2419 z m 63.96382,-128.30773 10.59637,-6.46139 -1.63942,-99.45813 -1.63943,-99.45814 28.33119,27.40439 c 47.78549,46.22227 56.24634,52.25663 73.2699,52.25663 20.32,0 34.72231,-13.7414 34.72231,-33.12894 0,-17.50572 -7.71878,-27.708 -68.69672,-90.79967 -84.56234,-87.4936 -97.05322,-93.63325 -133.41725,-65.5786 -20.46426,15.78806 -119.70311,117.77482 -130.42217,134.03354 -16.45004,24.95151 -0.89265,55.47367 28.27538,55.47367 17.02152,0 25.4652,-6.0214 73.27839,-52.25663 l 28.33967,-27.40439 -1.7134,99.41831 -1.71341,99.4183 10.66187,6.50122 c 13.90418,8.47828 37.89782,8.49675 51.76672,0.0398 z"
     id="path11"
     transform="scale(0.03)" />
  <path
     style="fill:#424242;fill-opacity:1;stroke-width:3.38983"
     d="m 377.25972,545.73429 -11.89283,-11.89283 2.48019,-91.03868 c 1.72762,-63.41458 1.38186,-91.7175 -1.1395,-93.27578 -1.99083,-1.2304 -21.62803,13.97278 -43.63821,33.78485 -22.01019,19.81207 -43.33824,37.58578 -47.39567,39.49714 -17.18513,8.09548 -38.02283,-8.59168 -33.45501,-26.79131 1.41322,-5.63073 29.85022,-36.74704 74.37324,-81.38063 63.96099,-64.11983 73.31178,-72.26417 82.9689,-72.26417 9.53835,0 18.46891,7.43786 72.2449,60.16949 89.71311,87.97084 98.17491,100.4459 78.58458,115.85566 -15.66619,12.32303 -24.6164,9.41788 -54.07005,-17.55057 -53.07454,-48.59632 -59.25363,-53.65305 -62.84747,-51.43193 -2.55536,1.57929 -2.91022,29.80284 -1.18617,94.33945 l 2.46002,92.08599 -12.40653,10.89307 c -16.91157,14.84856 -29.51151,14.56914 -45.08039,-0.99975 z"
     id="path12"
     transform="scale(0.03)" />
  <path
     style="fill:#424242;fill-opacity:1;stroke-width:3.38983"
     d="M 326.81367,755.80359 C 194.20854,726.68875 86.185231,624.66254 50.590336,494.91525 46.498482,480 42.39969,465.50847 41.48191,462.71186 37.539401,450.69847 36.908722,379.42339 40.505754,352.39333 51.106798,272.73127 92.7154,192.5015 152.84739,135.77603 261.27533,33.490608 422.06254,9.0248112 557.62712,74.183705 c 92.012,44.225415 165.06946,132.147225 191.8642,230.901045 4.04695,14.91525 8.11421,29.40678 9.03834,32.20339 4.0258,12.18254 4.59946,87.22623 0.86217,112.78562 -22.22708,152.0119 -140.70766,276.60804 -291.04597,306.06871 -31.08061,6.09065 -113.14354,5.89417 -141.53219,-0.33888 z m 156.23718,-64.24006 c 23.84274,-6.75136 71.62108,-29.01546 81.35593,-37.91085 3.72881,-3.40729 10.89169,-8.31526 15.91753,-10.90658 16.23562,-8.37118 62.66833,-59.83739 78.76271,-87.30088 14.92529,-25.46861 27.04647,-53.20319 30.48583,-69.75491 0.88274,-4.24831 2.57312,-11.53777 3.7563,-16.19878 6.21543,-24.48441 7.83349,-38.63112 7.94824,-69.49153 0.1178,-31.68093 -4.33929,-70.25572 -8.98641,-77.77494 -1.11976,-1.81181 -2.39973,-6.70616 -2.84434,-10.87633 -1.10962,-10.40758 -25.51139,-61.81984 -37.84356,-79.73281 -13.0143,-18.90383 -71.17071,-77.37863 -76.95728,-77.37863 -2.4359,0 -5.22739,-2.08079 -6.20333,-4.62398 -3.12396,-8.14096 -63.93681,-35.6302 -95.02539,-42.95434 -34.77766,-8.193251 -103.84528,-8.767689 -140.83472,-1.17133 -26.01937,5.34349 -68.17558,20.99831 -68.17558,25.31719 0,1.70141 -1.14407,2.91283 -2.54237,2.69205 -5.84494,-0.92289 -10.10346,0.73082 -16.30997,6.33363 -3.61426,3.26271 -11.11666,8.22034 -16.672,11.01695 -14.93819,7.52003 -57.85143,49.50249 -75.0394,73.41179 -18.44801,25.66208 -39.50337,70.05963 -47.17305,99.46956 -9.986458,38.29378 -9.323644,137.49326 1.02876,153.96831 1.26449,2.01234 2.81139,7.39085 3.43756,11.95224 1.77028,12.89572 22.61405,55.81939 39.27839,80.88613 15.63774,23.52251 67.13577,75.22722 74.92651,75.22722 2.44306,0 5.35706,2.38482 6.47556,5.2996 1.11851,2.91477 3.56985,4.35016 5.44742,3.18979 1.87758,-1.16041 3.41378,-0.82329 3.41378,0.74919 0,4.07447 18.9517,14.74759 21.55825,12.14102 1.19381,-1.1938 2.17056,-0.55312 2.17056,1.42376 0,5.6144 37.51728,19.4723 79.66102,29.42464 16.62381,3.92576 119.16803,-0.81634 138.98305,-6.42718 z"
     id="path13"
     transform="scale(0.03)" />
</svg>
